<svg width="16" height="16" viewBox="0 0 16 16" fill="none" xmlns="http://www.w3.org/2000/svg">
<path fill-rule="evenodd" clip-rule="evenodd" d="M9.79442 1.40722C9.48596 1.33316 9.16609 1.33332 8.74276 1.33352L6.50613 1.33354C5.96948 1.33353 5.52657 1.33352 5.16578 1.363C4.79104 1.39362 4.44658 1.45933 4.12302 1.62419C3.62125 1.87985 3.2133 2.2878 2.95764 2.78956C2.79278 3.11312 2.72707 3.45759 2.69646 3.83232C2.66698 4.19312 2.66698 4.63602 2.66699 5.17266V10.8277C2.66698 11.3644 2.66698 11.8073 2.69646 12.1681C2.72707 12.5428 2.79278 12.8873 2.95764 13.2108C3.2133 13.7126 3.62125 14.1206 4.12302 14.3762C4.44658 14.5411 4.79104 14.6068 5.16578 14.6374C5.52657 14.6669 5.96947 14.6669 6.50611 14.6669H9.49454C10.0312 14.6669 10.4741 14.6669 10.8349 14.6374C11.2096 14.6068 11.5541 14.5411 11.8776 14.3762C12.3794 14.1206 12.7873 13.7126 13.043 13.2108C13.2079 12.8873 13.2736 12.5428 13.3042 12.1681C13.3337 11.8073 13.3337 11.3644 13.3337 10.8277L13.3337 5.92443C13.3339 5.50111 13.334 5.18124 13.26 4.87278C13.1947 4.60068 13.0869 4.34056 12.9407 4.10197C12.7749 3.83149 12.5487 3.60542 12.2492 3.30622L11.361 2.41802C11.0618 2.11853 10.8357 1.89225 10.5652 1.7265C10.3266 1.58029 10.0665 1.47254 9.79442 1.40722ZM8.66699 2.66687H6.53366C5.96261 2.66687 5.57441 2.66739 5.27435 2.69191C4.98207 2.71579 4.83261 2.75907 4.72834 2.8122C4.47746 2.94003 4.27348 3.144 4.14565 3.39488C4.09252 3.49915 4.04924 3.64862 4.02536 3.9409C4.00084 4.24096 4.00033 4.62915 4.00033 5.2002V10.8002C4.00033 11.3713 4.00084 11.7595 4.02536 12.0595C4.04924 12.3518 4.09252 12.5013 4.14565 12.6055C4.27348 12.8564 4.47746 13.0604 4.72834 13.1882C4.83261 13.2413 4.98207 13.2846 5.27435 13.3085C5.57441 13.333 5.96261 13.3335 6.53366 13.3335H9.46699C10.038 13.3335 10.4262 13.333 10.7263 13.3085C11.0186 13.2846 11.168 13.2413 11.2723 13.1882C11.5232 13.0604 11.7272 12.8564 11.855 12.6055C11.9081 12.5013 11.9514 12.3518 11.9753 12.0595C11.9998 11.7595 12.0003 11.3713 12.0003 10.8002V6.0002H10.667C9.56242 6.0002 8.66699 5.10477 8.66699 4.0002V2.66687ZM11.707 4.66687C11.6269 4.57213 11.4989 4.4416 11.2583 4.20102L10.4662 3.40887C10.2256 3.16828 10.0951 3.04034 10.0003 2.96022V4.0002C10.0003 4.36839 10.2988 4.66687 10.667 4.66687H11.707Z" fill="#0067DF"/>
<path d="M8.66667 7.33317C8.66667 6.96498 8.36819 6.6665 8 6.6665C7.63181 6.6665 7.33333 6.96498 7.33333 7.33317V9.72369L7.13807 9.52843C6.87772 9.26808 6.45561 9.26808 6.19526 9.52843C5.93491 9.78878 5.93491 10.2109 6.19526 10.4712L7.5286 11.8046C7.78894 12.0649 8.21105 12.0649 8.4714 11.8046L9.80474 10.4712C10.0651 10.2109 10.0651 9.78878 9.80474 9.52843C9.54439 9.26808 9.12228 9.26808 8.86193 9.52843L8.66667 9.7237V7.33317Z" fill="#0067DF"/>
</svg>
