<svg width="122" height="118" viewBox="0 0 122 118" fill="none" xmlns="http://www.w3.org/2000/svg">
<g id="41">
<path id="Vector" d="M5.87455 20.2538C7.32821 19.7805 8.12361 18.2165 7.65113 16.7605C7.17866 15.3045 5.61722 14.5077 4.16357 14.981C2.70991 15.4542 1.91451 17.0182 2.38699 18.4743C2.85946 19.9303 4.4209 20.727 5.87455 20.2538Z" fill="#EAEEF9"/>
<path id="Vector_2" d="M23.0773 3.77023C24.1167 3.77023 24.9593 2.92624 24.9593 1.88512C24.9593 0.843995 24.1167 0 23.0773 0C22.0379 0 21.1953 0.843995 21.1953 1.88512C21.1953 2.92624 22.0379 3.77023 23.0773 3.77023Z" fill="url(#paint0_linear_881_81273)"/>
<path id="Vector_3" d="M118.618 52.5612C119.657 52.5612 120.5 51.7173 120.5 50.6761C120.5 49.635 119.657 48.791 118.618 48.791C117.578 48.791 116.736 49.635 116.736 50.6761C116.736 51.7173 117.578 52.5612 118.618 52.5612Z" fill="url(#paint1_linear_881_81273)"/>
<path id="Vector_4" d="M5.36396 93.3679C6.40338 93.3679 7.24599 92.5239 7.24599 91.4828C7.24599 90.4416 6.40338 89.5977 5.36396 89.5977C4.32455 89.5977 3.48193 90.4416 3.48193 91.4828C3.48193 92.5239 4.32455 93.3679 5.36396 93.3679Z" fill="url(#paint2_linear_881_81273)"/>
<path id="Vector_5" d="M116.166 27.7067C117.881 26.1368 118.001 23.4714 116.434 21.7535C114.866 20.0356 112.205 19.9156 110.49 21.4855C108.775 23.0554 108.655 25.7208 110.223 27.4387C111.79 29.1567 114.451 29.2767 116.166 27.7067Z" fill="#EAEEF9"/>
<path id="Vector_6" d="M116.484 8.81711C117.206 8.15608 117.257 7.03382 116.597 6.31048C115.937 5.58713 114.816 5.53661 114.094 6.19764C113.372 6.85867 113.322 7.98092 113.982 8.70427C114.641 9.42761 115.762 9.47813 116.484 8.81711Z" fill="#EAEEF9"/>
<g id="Group">
<path id="Vector_7" d="M28.9449 86.4941L19.9775 110.114H27.8378L38.4657 90.8188L28.9449 86.4941Z" fill="#CED7E2"/>
<path id="Vector_8" d="M76.6598 86.4941L85.6271 110.114H77.7668L67.1389 90.8188L76.6598 86.4941Z" fill="#CED7E2"/>
<path id="Vector_9" d="M56.8431 95.6973C80.5051 95.6973 99.6869 76.484 99.6869 52.7832C99.6869 29.0824 80.5051 9.86914 56.8431 9.86914C33.1811 9.86914 13.9993 29.0824 13.9993 52.7832C13.9993 76.484 33.1811 95.6973 56.8431 95.6973Z" fill="#CED7E2"/>
<path id="Vector_10" d="M52.8577 95.6973C76.5198 95.6973 95.7016 76.484 95.7016 52.7832C95.7016 29.0824 76.5198 9.86914 52.8577 9.86914C29.1958 9.86914 10.0139 29.0824 10.0139 52.7832C10.0139 76.484 29.1958 95.6973 52.8577 95.6973Z" fill="#E1E5ED"/>
<path id="Vector_11" d="M52.8579 85.1636C70.7114 85.1636 85.1845 70.6667 85.1845 52.7839C85.1845 34.9012 70.7114 20.4043 52.8579 20.4043C35.0044 20.4043 20.5312 34.9012 20.5312 52.7839C20.5312 70.6667 35.0044 85.1636 52.8579 85.1636Z" fill="white"/>
<path id="Vector_12" d="M52.8577 75.5153C65.3918 75.5153 75.5527 65.3377 75.5527 52.7831C75.5527 40.2284 65.3918 30.0508 52.8577 30.0508C40.3235 30.0508 30.1626 40.2284 30.1626 52.7831C30.1626 65.3377 40.3235 75.5153 52.8577 75.5153Z" fill="#E1E5ED"/>
<path id="Vector_13" d="M52.8576 65.3129C59.7667 65.3129 65.3676 59.7028 65.3676 52.7824C65.3676 45.862 59.7667 40.252 52.8576 40.252C45.9486 40.252 40.3477 45.862 40.3477 52.7824C40.3477 59.7028 45.9486 65.3129 52.8576 65.3129Z" fill="white"/>
<g id="Group_2">
<g id="Vector_14" filter="url(#filter0_d_881_81273)">
<path d="M113.747 83.1672C113.747 84.8306 113.525 86.4939 113.193 88.0464C112.972 89.0444 112.64 89.9315 112.308 90.8186C110.204 96.363 105.776 100.799 100.24 102.905C99.7977 103.016 99.4655 103.238 99.0227 103.349C96.9193 104.014 94.8158 104.347 92.491 104.347C80.756 104.347 71.2351 94.8106 71.2351 83.0563C71.2351 71.3021 80.756 61.7656 92.491 61.7656C104.226 61.8765 113.747 71.413 113.747 83.1672Z" fill="url(#paint3_linear_881_81273)"/>
</g>
<g id="Group_3">
<path id="Vector_15" d="M113.193 88.6006C112.971 89.4877 112.639 90.3748 112.307 91.2619C110.204 96.5846 105.997 100.798 100.683 102.905L88.7265 90.9293L87.0659 89.2659L98.8009 78.7315L102.676 76.5137L113.082 86.9373L113.193 88.6006Z" fill="url(#paint4_linear_881_81273)"/>
<path id="Vector_16" d="M90.2767 91.4842C89.6124 91.4842 88.9482 91.2624 88.5054 90.7079L83.6342 85.8288C82.6379 84.8308 82.6379 83.2784 83.6342 82.2804C84.6306 81.2824 86.1805 81.2824 87.1769 82.2804L90.2767 85.3853L99.1333 76.5141C100.13 75.5161 101.68 75.5161 102.676 76.5141C103.672 77.5121 103.672 79.0646 102.676 80.0626L92.048 90.7079C91.6052 91.2624 90.9409 91.4842 90.2767 91.4842Z" fill="url(#paint5_linear_881_81273)"/>
</g>
</g>
<g id="Group_4">
<path id="Vector_17" d="M31.1587 45.244L53.1895 51.0102C54.1859 51.232 54.7395 52.3409 54.518 53.3389C54.2966 54.3369 53.1895 54.8913 52.1932 54.6696L3.81396 42.0282C2.8176 41.8064 2.26406 40.6975 2.48547 39.6995C2.70689 38.7015 3.81396 38.1471 4.81033 38.3689L21.4165 42.6935" fill="#1C3754"/>
<path id="Vector_18" d="M24.5165 40.0317L23.963 38.9229C23.2987 37.5922 21.9702 36.4833 20.531 36.1506L5.4748 32.2695C4.36772 32.0477 3.48206 33.0457 4.0356 34.0437L7.46753 41.0298L1.04649 45.3544C0.160832 46.0198 0.382247 47.3504 1.48932 47.6831L16.5456 51.5642C17.9848 52.0078 19.6454 51.6751 20.8631 50.788L26.0664 47.2395C26.9521 46.6851 27.1735 45.5762 26.7307 44.6891L24.5165 40.0317Z" fill="url(#paint6_linear_881_81273)"/>
</g>
</g>
<g id="Group_5">
<path id="Vector_19" d="M2.70703 111H102.344" stroke="#EAEEF9" stroke-width="2" stroke-miterlimit="10" stroke-linecap="round" stroke-linejoin="round"/>
</g>
</g>
<defs>
<filter id="filter0_d_881_81273" x="63.2351" y="58.7656" width="58.5117" height="58.582" filterUnits="userSpaceOnUse" color-interpolation-filters="sRGB">
<feFlood flood-opacity="0" result="BackgroundImageFix"/>
<feColorMatrix in="SourceAlpha" type="matrix" values="0 0 0 0 0 0 0 0 0 0 0 0 0 0 0 0 0 0 127 0" result="hardAlpha"/>
<feOffset dy="5"/>
<feGaussianBlur stdDeviation="4"/>
<feColorMatrix type="matrix" values="0 0 0 0 0.1125 0 0 0 0 0.295916 0 0 0 0 1 0 0 0 0.22 0"/>
<feBlend mode="normal" in2="BackgroundImageFix" result="effect1_dropShadow_881_81273"/>
<feBlend mode="normal" in="SourceGraphic" in2="effect1_dropShadow_881_81273" result="shape"/>
</filter>
<linearGradient id="paint0_linear_881_81273" x1="21.2474" y1="1.83266" x2="24.9067" y2="1.83266" gradientUnits="userSpaceOnUse">
<stop stop-color="#83A6FF"/>
<stop offset="1" stop-color="#5A78FF"/>
</linearGradient>
<linearGradient id="paint1_linear_881_81273" x1="116.79" y1="50.6701" x2="120.449" y2="50.6701" gradientUnits="userSpaceOnUse">
<stop stop-color="#FF66A9"/>
<stop offset="1" stop-color="#F53689"/>
</linearGradient>
<linearGradient id="paint2_linear_881_81273" x1="3.57172" y1="91.4949" x2="7.23105" y2="91.4949" gradientUnits="userSpaceOnUse">
<stop stop-color="#FF66A9"/>
<stop offset="1" stop-color="#F53689"/>
</linearGradient>
<linearGradient id="paint3_linear_881_81273" x1="81.0708" y1="65.6986" x2="104.521" y2="101.353" gradientUnits="userSpaceOnUse">
<stop stop-color="#83A6FF"/>
<stop offset="1" stop-color="#5A78FF"/>
</linearGradient>
<linearGradient id="paint4_linear_881_81273" x1="94.5331" y1="82.519" x2="103.474" y2="91.445" gradientUnits="userSpaceOnUse">
<stop stop-color="#4F6AFF"/>
<stop offset="1" stop-color="#657EFF" stop-opacity="0"/>
</linearGradient>
<linearGradient id="paint5_linear_881_81273" x1="98.5855" y1="86.5812" x2="89.7914" y2="77.8013" gradientUnits="userSpaceOnUse">
<stop offset="0.0113208" stop-color="#C2D1FF"/>
<stop offset="1" stop-color="white"/>
</linearGradient>
<linearGradient id="paint6_linear_881_81273" x1="0.492954" y1="41.9966" x2="27.0072" y2="41.9966" gradientUnits="userSpaceOnUse">
<stop stop-color="#FF66A9"/>
<stop offset="1" stop-color="#F53689"/>
</linearGradient>
</defs>
</svg>
