<svg width="180" height="184" viewBox="0 0 180 184" fill="none" xmlns="http://www.w3.org/2000/svg">
<g id="45">
<g id="Group">
<path id="Vector" d="M179.5 91.8149C179.5 112.732 172.657 131.984 161.312 147.533C155.009 155.863 147.446 163.268 138.802 169.006C124.756 178.447 108.008 184 90 184C40.4779 184 0.5 142.72 0.5 92C0.5 41.0946 40.6579 0 90 0C108.008 0 124.756 5.55332 138.802 14.8089C147.446 20.5473 155.009 27.9517 161.312 36.2817C172.837 51.6459 179.5 70.8974 179.5 91.8149Z" fill="#D1E0F7"/>
</g>
<g id="File 2 2">
<path id="Vector_2" d="M119.418 61.4653H92.0581V50.8535H127.992C128.088 50.8535 128.185 50.8535 128.185 50.8535C133.772 50.9527 138.3 55.7131 138.3 61.5645H126.45" fill="#A4B7D4"/>
<path id="Vector_3" d="M128.955 50.8535C126.836 50.9527 124.909 51.9445 123.464 53.3329C123.368 53.4321 123.175 53.6304 123.079 53.8288C121.826 55.3164 120.959 57.2999 120.959 59.3826V122.855C120.959 128.806 116.335 133.566 110.555 133.566H60.0742V58.8868C60.1706 56.7049 61.0376 54.7214 62.3863 53.3329C63.9277 51.7461 65.9508 50.8535 68.2629 50.8535H118.936H128.57C128.763 50.8535 128.859 50.8535 128.955 50.8535Z" fill="white"/>
<path id="Vector_4" d="M110.844 65.3331H95.9116C95.3336 65.3331 94.9482 64.8372 94.9482 64.3414C94.9482 63.8455 95.4299 63.3496 95.9116 63.3496H110.94C111.518 63.3496 111.904 63.8455 111.904 64.3414C111.904 64.8372 111.422 65.3331 110.844 65.3331Z" fill="#CED7E2"/>
<path id="Vector_5" d="M88.8792 65.3331H69.3227C68.7447 65.3331 68.3594 64.8372 68.3594 64.3414C68.3594 63.8455 68.8411 63.3496 69.3227 63.3496H88.8792C89.4572 63.3496 89.8426 63.8455 89.8426 64.3414C89.8426 64.8372 89.4572 65.3331 88.8792 65.3331Z" fill="#CED7E2"/>
<path id="Vector_6" d="M101.403 75.3507H81.9429C81.3648 75.3507 80.9795 74.8548 80.9795 74.3589C80.9795 73.7639 81.4612 73.3672 81.9429 73.3672H101.403C101.981 73.3672 102.366 73.8631 102.366 74.3589C102.366 74.954 101.981 75.3507 101.403 75.3507Z" fill="#CED7E2"/>
<path id="Vector_7" d="M75.681 75.3507H69.3227C68.7447 75.3507 68.3594 74.8548 68.3594 74.3589C68.3594 73.7639 68.8411 73.3672 69.3227 73.3672H75.681C76.259 73.3672 76.6444 73.8631 76.6444 74.3589C76.6444 74.954 76.1627 75.3507 75.681 75.3507Z" fill="#E3EAF2"/>
<path id="Vector_8" d="M110.844 85.4659H98.8979C98.3199 85.4659 97.9346 84.9701 97.9346 84.4742C97.9346 83.8791 98.4163 83.4824 98.8979 83.4824H110.844C111.422 83.4824 111.807 83.9783 111.807 84.4742C111.903 84.9701 111.422 85.4659 110.844 85.4659Z" fill="#E3EAF2"/>
<path id="Vector_9" d="M93.2144 85.4659H69.3227C68.7447 85.4659 68.3594 84.9701 68.3594 84.4742C68.3594 83.8791 68.8411 83.4824 69.3227 83.4824H93.2144C93.7924 83.4824 94.1777 83.9783 94.1777 84.4742C94.1777 84.9701 93.7924 85.4659 93.2144 85.4659Z" fill="#CED7E2"/>
<path id="Vector_10" d="M101.403 95.4835H88.2046C87.6266 95.4835 87.2412 94.9876 87.2412 94.4918C87.2412 93.9959 87.7229 93.5 88.2046 93.5H101.403C101.981 93.5 102.366 93.9959 102.366 94.4918C102.366 94.9876 101.981 95.4835 101.403 95.4835Z" fill="#CED7E2"/>
<path id="Vector_11" d="M82.5209 95.4835H69.3227C68.7447 95.4835 68.3594 94.9876 68.3594 94.4918C68.3594 93.9959 68.8411 93.5 69.3227 93.5H82.5209C83.099 93.5 83.4843 93.9959 83.4843 94.4918C83.4843 94.9876 83.099 95.4835 82.5209 95.4835Z" fill="#E3EAF2"/>
<path id="Vector_12" d="M110.844 105.599H101.692C101.114 105.599 100.729 105.103 100.729 104.607C100.729 104.012 101.21 103.615 101.692 103.615H110.844C111.422 103.615 111.807 104.111 111.807 104.607C111.904 105.103 111.422 105.599 110.844 105.599Z" fill="#CED7E2"/>
<path id="Vector_13" d="M95.7191 105.599H80.3052C79.7271 105.599 79.3418 105.103 79.3418 104.607C79.3418 104.012 79.8235 103.615 80.3052 103.615H95.7191C96.2971 103.615 96.6825 104.111 96.6825 104.607C96.7788 105.103 96.2971 105.599 95.7191 105.599Z" fill="#E3EAF2"/>
<path id="Vector_14" d="M74.6209 105.599H69.2261C68.648 105.599 68.2627 105.103 68.2627 104.607C68.2627 104.012 68.7444 103.615 69.2261 103.615H74.6209C75.199 103.615 75.5843 104.111 75.5843 104.607C75.5843 105.103 75.199 105.599 74.6209 105.599Z" fill="#CED7E2"/>
<path id="Vector_15" d="M101.403 115.616H92.2505C91.6725 115.616 91.2871 115.12 91.2871 114.625C91.2871 114.129 91.7688 113.633 92.2505 113.633H101.403C101.981 113.633 102.366 114.129 102.366 114.625C102.366 115.12 101.981 115.616 101.403 115.616Z" fill="#CED7E2"/>
<path id="Vector_16" d="M86.2781 115.616H69.3227C68.7447 115.616 68.3594 115.12 68.3594 114.625C68.3594 114.129 68.8411 113.633 69.3227 113.633H86.2781C86.8561 113.633 87.2415 114.129 87.2415 114.625C87.2415 115.12 86.7598 115.616 86.2781 115.616Z" fill="#E3EAF2"/>
<path id="Vector_17" d="M88.3974 125.037H101.692C101.692 127.318 102.559 129.5 104.1 130.988C105.545 132.475 107.568 133.467 109.881 133.467H49.8625C47.6467 133.467 45.5273 132.574 44.0823 130.988C42.6372 129.5 41.6738 127.417 41.6738 125.037H81.0757C81.1721 125.037 88.4937 125.136 88.3974 125.037Z" fill="#A4B7D4"/>
</g>
<path id="Vector_18" d="M50.7139 53.3166C51.9788 52.8934 52.671 51.4946 52.2598 50.1923C51.8487 48.8901 50.4899 48.1775 49.225 48.6008C47.96 49.0241 47.2679 50.4229 47.679 51.7251C48.0902 53.0273 49.4489 53.7399 50.7139 53.3166Z" fill="#EAEEF9"/>
<path id="Vector_19" d="M55.9713 45.2266C56.8315 44.9388 57.3021 43.9876 57.0226 43.1021C56.743 42.2166 55.819 41.7321 54.9588 42.0199C54.0987 42.3077 53.628 43.2589 53.9076 44.1444C54.1872 45.0299 55.1111 45.5144 55.9713 45.2266Z" fill="#EAEEF9"/>
<path id="Vector_20" d="M33.9668 98.6552C34.8713 98.6552 35.6046 97.9003 35.6046 96.9692C35.6046 96.038 34.8713 95.2832 33.9668 95.2832C33.0623 95.2832 32.3291 96.038 32.3291 96.9692C32.3291 97.9003 33.0623 98.6552 33.9668 98.6552Z" fill="url(#paint0_linear_682_54747)"/>
<path id="Vector_21" d="M147.796 77.7483C149.288 76.3442 149.393 73.9604 148.029 72.4239C146.665 70.8874 144.349 70.7801 142.857 72.1842C141.364 73.5883 141.26 75.9721 142.624 77.5086C143.988 79.0451 146.303 79.1524 147.796 77.7483Z" fill="#EAEEF9"/>
<path id="Vector_22" d="M147.067 61.2654C147.918 61.2654 148.608 60.555 148.608 59.6786C148.608 58.8022 147.918 58.0918 147.067 58.0918C146.215 58.0918 145.525 58.8022 145.525 59.6786C145.525 60.555 146.215 61.2654 147.067 61.2654Z" fill="url(#paint1_linear_682_54747)"/>
<g id="Group_2">
<g id="Vector_23" filter="url(#filter0_d_682_54747)">
<path d="M145.621 121.289C145.621 122.654 145.426 123.922 145.133 125.19C144.938 125.97 144.743 126.652 144.45 127.335C142.791 131.626 139.377 135.136 135.084 136.891C134.987 136.989 134.889 136.989 134.791 136.989C134.499 137.086 134.206 137.184 133.816 137.281C132.157 137.866 130.401 138.061 128.645 138.061C119.279 138.061 111.669 130.455 111.669 121.094C111.669 111.733 119.279 104.225 128.645 104.225C138.011 104.322 145.621 111.928 145.621 121.289Z" fill="url(#paint2_linear_682_54747)"/>
</g>
<g id="Group_3">
<path id="Vector_24" d="M145.133 125.192C144.937 125.972 144.742 126.654 144.45 127.337C142.791 131.627 139.376 135.138 135.084 136.893L125.62 127.434L124.352 126.167L133.718 117.781L136.84 116.025L145.133 124.314V125.192Z" fill="url(#paint3_linear_682_54747)"/>
<path id="Vector_25" d="M126.889 127.921C126.401 127.921 125.913 127.726 125.523 127.336L121.621 123.435C120.84 122.655 120.84 121.388 121.621 120.607C122.401 119.827 123.669 119.827 124.45 120.607L126.889 123.045L134.011 115.927C134.791 115.147 136.06 115.147 136.84 115.927C137.621 116.707 137.621 117.975 136.84 118.755L128.352 127.336C127.962 127.726 127.377 127.921 126.889 127.921Z" fill="url(#paint4_linear_682_54747)"/>
</g>
</g>
</g>
<defs>
<filter id="filter0_d_682_54747" x="103.669" y="101.225" width="49.9512" height="49.8359" filterUnits="userSpaceOnUse" color-interpolation-filters="sRGB">
<feFlood flood-opacity="0" result="BackgroundImageFix"/>
<feColorMatrix in="SourceAlpha" type="matrix" values="0 0 0 0 0 0 0 0 0 0 0 0 0 0 0 0 0 0 127 0" result="hardAlpha"/>
<feOffset dy="5"/>
<feGaussianBlur stdDeviation="4"/>
<feColorMatrix type="matrix" values="0 0 0 0 0.1125 0 0 0 0 0.295916 0 0 0 0 1 0 0 0 0.22 0"/>
<feBlend mode="normal" in2="BackgroundImageFix" result="effect1_dropShadow_682_54747"/>
<feBlend mode="normal" in="SourceGraphic" in2="effect1_dropShadow_682_54747" result="shape"/>
</filter>
<linearGradient id="paint0_linear_682_54747" x1="32.3324" y1="96.9746" x2="35.5167" y2="96.9746" gradientUnits="userSpaceOnUse">
<stop stop-color="#83A6FF"/>
<stop offset="1" stop-color="#5A78FF"/>
</linearGradient>
<linearGradient id="paint1_linear_682_54747" x1="145.557" y1="59.7269" x2="148.547" y2="59.7269" gradientUnits="userSpaceOnUse">
<stop stop-color="#FF66A9"/>
<stop offset="1" stop-color="#F53689"/>
</linearGradient>
<linearGradient id="paint2_linear_682_54747" x1="119.561" y1="107.387" x2="138.198" y2="135.784" gradientUnits="userSpaceOnUse">
<stop stop-color="#83A6FF"/>
<stop offset="1" stop-color="#5A78FF"/>
</linearGradient>
<linearGradient id="paint3_linear_682_54747" x1="130.724" y1="121.197" x2="141.433" y2="131.912" gradientUnits="userSpaceOnUse">
<stop stop-color="#4F6AFF"/>
<stop offset="1" stop-color="#657EFF" stop-opacity="0"/>
</linearGradient>
<linearGradient id="paint4_linear_682_54747" x1="133.523" y1="124" x2="126.527" y2="117" gradientUnits="userSpaceOnUse">
<stop offset="0.0113208" stop-color="#C2D1FF"/>
<stop offset="1" stop-color="white"/>
</linearGradient>
</defs>
</svg>
