<svg width="16" height="17" viewBox="0 0 16 17" fill="none" xmlns="http://www.w3.org/2000/svg">
<path d="M9.33268 7.83398H5.33268M10.666 5.16732H5.33268M13.3327 5.03398V11.9673C13.3327 13.0874 13.3327 13.6475 13.1147 14.0753C12.9229 14.4516 12.617 14.7576 12.2407 14.9493C11.8128 15.1673 11.2528 15.1673 10.1327 15.1673H5.86602C4.74591 15.1673 4.18586 15.1673 3.75803 14.9493C3.38171 14.7576 3.07575 14.4516 2.884 14.0753C2.66602 13.6475 2.66602 13.0874 2.66602 11.9673V5.03398C2.66602 3.91388 2.66602 3.35383 2.884 2.926C3.07575 2.54968 3.38171 2.24372 3.75803 2.05197C4.18586 1.83398 4.74591 1.83398 5.86602 1.83398H10.1327C11.2528 1.83398 11.8128 1.83398 12.2407 2.05197C12.617 2.24372 12.9229 2.54968 13.1147 2.926C13.3327 3.35383 13.3327 3.91388 13.3327 5.03398Z" stroke="#181B1F" stroke-width="1.5" stroke-linecap="round" stroke-linejoin="round"/>
</svg>
