<svg width="18" height="19" viewBox="0 0 18 19" fill="none" xmlns="http://www.w3.org/2000/svg">
<path d="M12.9591 5.47196L14.2849 6.79779M12.9591 5.47196L11.6333 4.14614M12.9591 5.47196L14.2849 4.14614M11.1029 3.61581C11.31 3.82292 11.6333 4.14614 11.6333 4.14614M14.8153 7.32812C14.6081 7.12101 14.2849 6.79779 14.2849 6.79779M14.2849 6.79779L11.6333 9.44944M11.6333 4.14614L8.98162 6.79779M7.6558 12.3663V12.3663C7.94869 12.6591 8.42356 12.6591 8.71646 12.3663L11.6333 9.44944M7.6558 12.3663L7.39063 12.6314C6.95129 13.0708 6.23898 13.0708 5.79964 12.6314V12.6314V12.6314C5.3603 12.1921 5.3603 11.4798 5.79964 11.0404L6.06481 10.7753M7.6558 12.3663L6.06481 10.7753M6.06481 10.7753V10.7753C5.77191 10.4824 5.77191 10.0075 6.06481 9.71461L8.98162 6.79779M8.98162 6.79779L11.6333 9.44944M14.2849 4.14614L13.7691 3.63037C13.7597 3.62092 13.7536 3.60865 13.7518 3.59542C13.7502 3.58378 13.7643 3.57677 13.7726 3.58507L14.846 4.65848C14.8543 4.66679 14.8473 4.6809 14.8356 4.67929C14.8224 4.67746 14.8101 4.67136 14.8007 4.66191L14.2849 4.14614Z" stroke="#22202A" stroke-linecap="round"/>
<path d="M3.62097 14.8087L5.79883 12.6309" stroke="#22202A" stroke-linecap="round"/>
<path d="M8.9815 11.5713L8.45117 11.041" stroke="#22202A" stroke-linecap="round"/>
<path d="M9.77642 10.7745L9.24609 10.2441" stroke="#22202A" stroke-linecap="round"/>
<path d="M10.5733 9.97955L10.043 9.44922" stroke="#22202A" stroke-linecap="round"/>
</svg>
