<svg width="156" height="156" viewBox="0 0 156 156" fill="none" xmlns="http://www.w3.org/2000/svg">
<mask id="path-1-outside-1_272_45151" maskUnits="userSpaceOnUse" x="0" y="0" width="156" height="156" fill="black">
<rect fill="white" width="156" height="156"/>
<path d="M152 78C152 118.869 118.869 152 78 152C37.1309 152 4 118.869 4 78C4 37.1309 37.1309 4 78 4C118.869 4 152 37.1309 152 78ZM27.814 78C27.814 105.717 50.2831 128.186 78 128.186C105.717 128.186 128.186 105.717 128.186 78C128.186 50.2831 105.717 27.814 78 27.814C50.2831 27.814 27.814 50.2831 27.814 78Z"/>
</mask>
<path d="M152 78C152 118.869 118.869 152 78 152C37.1309 152 4 118.869 4 78C4 37.1309 37.1309 4 78 4C118.869 4 152 37.1309 152 78ZM27.814 78C27.814 105.717 50.2831 128.186 78 128.186C105.717 128.186 128.186 105.717 128.186 78C128.186 50.2831 105.717 27.814 78 27.814C50.2831 27.814 27.814 50.2831 27.814 78Z" fill="#F37060"/>
<path d="M152 78C152 118.869 118.869 152 78 152C37.1309 152 4 118.869 4 78C4 37.1309 37.1309 4 78 4C118.869 4 152 37.1309 152 78ZM27.814 78C27.814 105.717 50.2831 128.186 78 128.186C105.717 128.186 128.186 105.717 128.186 78C128.186 50.2831 105.717 27.814 78 27.814C50.2831 27.814 27.814 50.2831 27.814 78Z" stroke="#FCFCFC" stroke-width="8" mask="url(#path-1-outside-1_272_45151)"/>
<mask id="path-2-outside-2_272_45151" maskUnits="userSpaceOnUse" x="0" y="0" width="156" height="156" fill="black">
<rect fill="white" width="156" height="156"/>
<path d="M78 4C94.6218 4 110.76 9.59609 123.813 19.8865C136.866 30.177 146.075 44.5625 149.955 60.725C153.836 76.8876 152.161 93.8859 145.203 108.981C138.244 124.076 126.405 136.388 111.595 143.934C96.7852 151.481 79.8657 153.821 63.5633 150.578C47.2609 147.335 32.5249 138.698 21.7299 126.059C10.935 113.42 4.70962 97.5142 4.05705 80.9052C3.40449 64.2962 8.3627 47.9512 18.1328 34.5039L37.2376 48.3844C30.5854 57.5404 27.2095 68.6694 27.6538 79.9781C28.0981 91.2868 32.3368 102.117 39.6869 110.722C47.037 119.328 57.0704 125.209 68.1704 127.417C79.2703 129.625 90.7904 128.031 100.874 122.893C110.958 117.755 119.019 109.372 123.757 99.0942C128.495 88.8163 129.635 77.2426 126.993 66.2378C124.351 55.2331 118.081 45.4383 109.193 38.4318C100.305 31.4252 89.3174 27.6149 78 27.6149L78 4Z"/>
</mask>
<path d="M78 4C94.6218 4 110.76 9.59609 123.813 19.8865C136.866 30.177 146.075 44.5625 149.955 60.725C153.836 76.8876 152.161 93.8859 145.203 108.981C138.244 124.076 126.405 136.388 111.595 143.934C96.7852 151.481 79.8657 153.821 63.5633 150.578C47.2609 147.335 32.5249 138.698 21.7299 126.059C10.935 113.42 4.70962 97.5142 4.05705 80.9052C3.40449 64.2962 8.3627 47.9512 18.1328 34.5039L37.2376 48.3844C30.5854 57.5404 27.2095 68.6694 27.6538 79.9781C28.0981 91.2868 32.3368 102.117 39.6869 110.722C47.037 119.328 57.0704 125.209 68.1704 127.417C79.2703 129.625 90.7904 128.031 100.874 122.893C110.958 117.755 119.019 109.372 123.757 99.0942C128.495 88.8163 129.635 77.2426 126.993 66.2378C124.351 55.2331 118.081 45.4383 109.193 38.4318C100.305 31.4252 89.3174 27.6149 78 27.6149L78 4Z" fill="#FFC061"/>
<path d="M78 4C94.6218 4 110.76 9.59609 123.813 19.8865C136.866 30.177 146.075 44.5625 149.955 60.725C153.836 76.8876 152.161 93.8859 145.203 108.981C138.244 124.076 126.405 136.388 111.595 143.934C96.7852 151.481 79.8657 153.821 63.5633 150.578C47.2609 147.335 32.5249 138.698 21.7299 126.059C10.935 113.42 4.70962 97.5142 4.05705 80.9052C3.40449 64.2962 8.3627 47.9512 18.1328 34.5039L37.2376 48.3844C30.5854 57.5404 27.2095 68.6694 27.6538 79.9781C28.0981 91.2868 32.3368 102.117 39.6869 110.722C47.037 119.328 57.0704 125.209 68.1704 127.417C79.2703 129.625 90.7904 128.031 100.874 122.893C110.958 117.755 119.019 109.372 123.757 99.0942C128.495 88.8163 129.635 77.2426 126.993 66.2378C124.351 55.2331 118.081 45.4383 109.193 38.4318C100.305 31.4252 89.3174 27.6149 78 27.6149L78 4Z" stroke="#FCFCFC" stroke-width="8" mask="url(#path-2-outside-2_272_45151)"/>
<mask id="path-3-outside-3_272_45151" maskUnits="userSpaceOnUse" x="28" y="0" width="128" height="156" fill="black">
<rect fill="white" x="28" width="128" height="156"/>
<path d="M78 4C89.678 4 101.19 6.76383 111.595 12.0655C122 17.3672 131.003 25.0562 137.867 34.5039C144.731 43.9516 149.262 54.8896 151.089 66.4238C152.916 77.958 151.987 89.7608 148.378 100.867C144.769 111.974 138.583 122.068 130.326 130.326C122.068 138.583 111.974 144.769 100.867 148.378C89.7609 151.987 77.9581 152.916 66.4239 151.089C54.8897 149.262 43.9516 144.731 34.5039 137.867L48.6321 118.421C55.011 123.056 62.3963 126.115 70.184 127.349C77.9717 128.582 85.9408 127.955 93.4396 125.518C100.939 123.082 107.754 118.905 113.33 113.33C118.905 107.754 123.082 100.938 125.518 93.4396C127.955 85.9407 128.582 77.9717 127.349 70.184C126.115 62.3962 123.056 55.011 118.421 48.6321C113.787 42.2532 107.708 37.0617 100.683 33.482C93.6576 29.9024 85.8848 28.0363 78 28.0363L78 4Z"/>
</mask>
<path d="M78 4C89.678 4 101.19 6.76383 111.595 12.0655C122 17.3672 131.003 25.0562 137.867 34.5039C144.731 43.9516 149.262 54.8896 151.089 66.4238C152.916 77.958 151.987 89.7608 148.378 100.867C144.769 111.974 138.583 122.068 130.326 130.326C122.068 138.583 111.974 144.769 100.867 148.378C89.7609 151.987 77.9581 152.916 66.4239 151.089C54.8897 149.262 43.9516 144.731 34.5039 137.867L48.6321 118.421C55.011 123.056 62.3963 126.115 70.184 127.349C77.9717 128.582 85.9408 127.955 93.4396 125.518C100.939 123.082 107.754 118.905 113.33 113.33C118.905 107.754 123.082 100.938 125.518 93.4396C127.955 85.9407 128.582 77.9717 127.349 70.184C126.115 62.3962 123.056 55.011 118.421 48.6321C113.787 42.2532 107.708 37.0617 100.683 33.482C93.6576 29.9024 85.8848 28.0363 78 28.0363L78 4Z" fill="#2B9E7B"/>
<path d="M78 4C89.678 4 101.19 6.76383 111.595 12.0655C122 17.3672 131.003 25.0562 137.867 34.5039C144.731 43.9516 149.262 54.8896 151.089 66.4238C152.916 77.958 151.987 89.7608 148.378 100.867C144.769 111.974 138.583 122.068 130.326 130.326C122.068 138.583 111.974 144.769 100.867 148.378C89.7609 151.987 77.9581 152.916 66.4239 151.089C54.8897 149.262 43.9516 144.731 34.5039 137.867L48.6321 118.421C55.011 123.056 62.3963 126.115 70.184 127.349C77.9717 128.582 85.9408 127.955 93.4396 125.518C100.939 123.082 107.754 118.905 113.33 113.33C118.905 107.754 123.082 100.938 125.518 93.4396C127.955 85.9407 128.582 77.9717 127.349 70.184C126.115 62.3962 123.056 55.011 118.421 48.6321C113.787 42.2532 107.708 37.0617 100.683 33.482C93.6576 29.9024 85.8848 28.0363 78 28.0363L78 4Z" stroke="#FCFCFC" stroke-width="8" mask="url(#path-3-outside-3_272_45151)"/>
</svg>
