<svg width="20" height="21" viewBox="0 0 20 21" fill="none" xmlns="http://www.w3.org/2000/svg">
<path d="M3.74984 18.8337V14.667M3.74984 6.33366V2.16699M1.6665 4.25033H5.83317M1.6665 16.7503H5.83317M10.8332 3.00033L9.38802 6.75771C9.15301 7.36874 9.03551 7.67425 8.85278 7.93123C8.69083 8.15899 8.49184 8.35798 8.26408 8.51993C8.00709 8.70266 7.70158 8.82017 7.09055 9.05518L3.33317 10.5003L7.09056 11.9455C7.70158 12.1805 8.00709 12.298 8.26408 12.4807C8.49184 12.6427 8.69083 12.8417 8.85278 13.0694C9.03551 13.3264 9.15301 13.6319 9.38802 14.2429L10.8332 18.0003L12.2783 14.2429C12.5133 13.6319 12.6308 13.3264 12.8136 13.0694C12.9755 12.8417 13.1745 12.6427 13.4023 12.4807C13.6592 12.298 13.9648 12.1805 14.5758 11.9455L18.3332 10.5003L14.5758 9.05518C13.9648 8.82017 13.6592 8.70266 13.4023 8.51993C13.1745 8.35798 12.9755 8.15899 12.8136 7.93123C12.6308 7.67425 12.5133 7.36874 12.2783 6.75771L10.8332 3.00033Z" stroke="#FFB11A" stroke-width="1.5" stroke-linecap="round" stroke-linejoin="round"/>
</svg>
