<svg width="91" height="106" viewBox="0 0 91 106" fill="none" xmlns="http://www.w3.org/2000/svg">
<g id="11">
<g id="Group">
<path id="Vector" d="M40.5533 20.4473L34.5728 27.7397C33.5607 28.9397 31.7206 29.1243 30.4324 28.0166L23.2559 22.0165L40.5533 20.4473Z" fill="#CED7E2"/>
</g>
<g id="Group_2">
<path id="Vector_2" d="M54.5384 12.5087L45.9817 18.6934C44.5096 19.8011 42.3934 19.4319 41.2893 17.8626L35.2168 9.18555H35.3088L54.5384 12.5087Z" fill="#CED7E2"/>
</g>
<g id="Group_3">
<path id="Vector_3" d="M74.8709 27.1854L63.646 26.0777C61.7138 25.8931 60.2417 24.1392 60.5177 22.1084L61.7138 10.8467H61.8058L74.8709 27.1854Z" fill="#CED7E2"/>
</g>
<g id="Vector_4" filter="url(#filter0_d_991_80669)">
<path d="M74.8727 23.8618V75.8318C74.8727 78.878 72.4805 81.278 69.4443 81.278H22.4284C19.3922 81.278 17 78.878 17 75.8318V14.4462C17 11.4 19.4842 9 22.4284 9H60.0595L74.8727 23.8618Z" fill="white"/>
</g>
<path id="Vector_5" d="M74.874 23.8618L63.557 23.9541C61.5329 23.9541 59.9688 22.3848 59.9688 20.354V9H60.0608L74.874 23.8618Z" fill="#E1EAF2"/>
<g id="Group_4">
<g id="Group_5">
<path id="Vector_6" d="M64.4759 52.0159H28.685C27.8569 52.0159 27.2129 51.3697 27.2129 50.539V29.8617C27.2129 29.0309 27.8569 28.3848 28.685 28.3848H64.4759C65.304 28.3848 65.9481 29.0309 65.9481 29.8617V50.4466C66.0401 51.2774 65.304 52.0159 64.4759 52.0159Z" fill="#E6EDF5"/>
<path id="Vector_7" d="M47.915 48.7854H33.0098L40.4624 40.293L47.915 48.7854Z" fill="#CED7E2"/>
<path id="Vector_8" d="M60.3344 48.7854H38.8047L49.5696 36.6006L60.3344 48.7854Z" fill="white"/>
<path id="Vector_9" d="M38.6237 37.2466C40.199 37.2466 41.4759 35.9654 41.4759 34.385C41.4759 32.8046 40.199 31.5234 38.6237 31.5234C37.0485 31.5234 35.7715 32.8046 35.7715 34.385C35.7715 35.9654 37.0485 37.2466 38.6237 37.2466Z" fill="#CED7E2"/>
</g>
</g>
<path id="Vector_10" d="M65.2118 59.3081H28.3168C27.7647 59.3081 27.3047 58.8466 27.3047 58.2927C27.3047 57.7389 27.7647 57.2773 28.3168 57.2773H65.2118C65.7638 57.2773 66.2239 57.7389 66.2239 58.2927C66.2239 58.8466 65.7638 59.3081 65.2118 59.3081Z" fill="#CED7E2"/>
<path id="Vector_11" d="M65.2118 65.0308H28.3168C27.7647 65.0308 27.3047 64.5693 27.3047 64.0154C27.3047 63.4615 27.7647 63 28.3168 63H65.2118C65.7638 63 66.2239 63.4615 66.2239 64.0154C66.2239 64.5693 65.7638 65.0308 65.2118 65.0308Z" fill="#CED7E2"/>
<path id="Vector_12" d="M46.5343 69.739C46.5343 70.2929 46.0742 70.7544 45.5222 70.7544H28.3168C27.7647 70.7544 27.3047 70.2929 27.3047 69.739C27.3047 69.1852 27.7647 68.7236 28.3168 68.7236H45.5222C46.0742 68.7236 46.5343 69.1852 46.5343 69.739Z" fill="#CED7E2"/>
<path id="Vector_13" d="M47.2703 17.3072H28.3168C27.7647 17.3072 27.3047 16.8456 27.3047 16.2918C27.3047 15.7379 27.7647 15.2764 28.3168 15.2764H47.2703C47.8224 15.2764 48.2824 15.7379 48.2824 16.2918C48.2824 16.8456 47.8224 17.3072 47.2703 17.3072Z" fill="#CED7E2"/>
<path id="Vector_14" d="M36.6895 23.0308H28.3168C27.7647 23.0308 27.3047 22.5693 27.3047 22.0154C27.3047 21.4615 27.7647 21 28.3168 21H36.6895C37.2415 21 37.7015 21.4615 37.7015 22.0154C37.6095 22.5693 37.2415 23.0308 36.6895 23.0308Z" fill="#CED7E2"/>
<g id="Group_6">
<g id="Ellipse 3" filter="url(#filter1_d_991_80669)">
<ellipse cx="45.9896" cy="42.5873" rx="7.28254" ry="9.83143" fill="#6382FF"/>
</g>
<path id="Vector_15" d="M57.5759 42.0471C57.1158 36.3239 52.3315 31.6161 46.627 31.4315C44.1428 31.3392 41.7506 31.9854 39.8184 33.2777C36.6902 35.3085 34.666 38.9086 34.666 42.8779C34.666 46.6625 36.5062 50.078 39.3584 52.2011C39.7264 52.478 40.0024 52.8472 40.0945 53.3088C40.2785 54.0473 41.0145 54.878 42.0266 54.878C42.4867 54.878 42.9467 54.6934 43.3147 54.4165C43.4987 54.2319 43.7748 54.2319 43.9588 54.3242C44.2348 54.4165 44.4188 54.6011 44.3268 54.9704C44.3268 55.0627 44.3268 55.0627 44.3268 55.0627C44.3268 55.7088 44.8788 56.2627 45.5229 56.2627C46.167 56.2627 46.719 55.7088 46.719 55.0627C46.719 54.7857 46.903 54.5088 47.271 54.4165C53.4356 53.678 58.0359 48.3241 57.5759 42.0471Z" fill="url(#paint0_linear_991_80669)"/>
<path id="Vector_16" d="M41.3812 58.4781C41.9402 58.4781 42.3933 58.0235 42.3933 57.4627C42.3933 56.9019 41.9402 56.4473 41.3812 56.4473C40.8223 56.4473 40.3691 56.9019 40.3691 57.4627C40.3691 58.0235 40.8223 58.4781 41.3812 58.4781Z" fill="url(#paint1_linear_991_80669)"/>
<path id="Vector_17" d="M41.6597 63.6468C42.0154 63.6468 42.3037 63.3575 42.3037 63.0007C42.3037 62.6438 42.0154 62.3545 41.6597 62.3545C41.304 62.3545 41.0156 62.6438 41.0156 63.0007C41.0156 63.3575 41.304 63.6468 41.6597 63.6468Z" fill="url(#paint2_linear_991_80669)"/>
<path id="Vector_18" d="M45.7988 59.6772C46.2561 59.6772 46.6268 59.3052 46.6268 58.8464C46.6268 58.3876 46.2561 58.0156 45.7988 58.0156C45.3414 58.0156 44.9707 58.3876 44.9707 58.8464C44.9707 59.3052 45.3414 59.6772 45.7988 59.6772Z" fill="url(#paint3_linear_991_80669)"/>
<path id="Vector_19" d="M50.4906 57.1861C51.0496 57.1861 51.5027 56.7315 51.5027 56.1707C51.5027 55.6099 51.0496 55.1553 50.4906 55.1553C49.9316 55.1553 49.4785 55.6099 49.4785 56.1707C49.4785 56.7315 49.9316 57.1861 50.4906 57.1861Z" fill="url(#paint4_linear_991_80669)"/>
<path id="Vector_20" d="M48.9253 64.4779C49.281 64.4779 49.5694 64.1886 49.5694 63.8317C49.5694 63.4748 49.281 63.1855 48.9253 63.1855C48.5696 63.1855 48.2812 63.4748 48.2812 63.8317C48.2812 64.1886 48.5696 64.4779 48.9253 64.4779Z" fill="url(#paint5_linear_991_80669)"/>
<path id="Vector_21" d="M45.3376 66.6928C45.7441 66.6928 46.0737 66.3621 46.0737 65.9543C46.0737 65.5464 45.7441 65.2158 45.3376 65.2158C44.9311 65.2158 44.6016 65.5464 44.6016 65.9543C44.6016 66.3621 44.9311 66.6928 45.3376 66.6928Z" fill="url(#paint6_linear_991_80669)"/>
<path id="Vector_22" d="M46.1666 73.4328C46.3191 73.4328 46.4427 73.3088 46.4427 73.1558C46.4427 73.0029 46.3191 72.8789 46.1666 72.8789C46.0142 72.8789 45.8906 73.0029 45.8906 73.1558C45.8906 73.3088 46.0142 73.4328 46.1666 73.4328Z" fill="url(#paint7_linear_991_80669)"/>
<path id="Vector_23" d="M44.3272 70.0159C44.5813 70.0159 44.7873 69.8092 44.7873 69.5543C44.7873 69.2994 44.5813 69.0928 44.3272 69.0928C44.0732 69.0928 43.8672 69.2994 43.8672 69.5543C43.8672 69.8092 44.0732 70.0159 44.3272 70.0159Z" fill="url(#paint8_linear_991_80669)"/>
</g>
<g id="Upload 1">
<path id="Vector_24" d="M39.8184 33.1841C41.6586 31.9841 43.7748 31.3379 46.167 31.3379C52.5155 31.3379 57.6679 36.5072 57.6679 42.8765C57.6679 49.2459 52.5155 54.4152 46.167 54.4152C39.8184 54.4152 34.666 49.2459 34.666 42.8765C34.666 38.8149 36.6902 35.3072 39.8184 33.1841Z" fill="url(#paint9_linear_991_80669)"/>
<path id="Vector_25" d="M56.8386 47.0305L50.3061 40.4765L48.0979 39.6457L45.7057 38.7227L42.0254 42.0458L45.8897 45.9228L45.3377 48.5997L50.3061 53.5844L56.8386 47.0305Z" fill="url(#paint10_linear_991_80669)"/>
<path id="Vector_26" d="M46.9009 37.0616L50.3052 40.477C50.7652 40.9386 50.7652 41.5847 50.3052 42.0463C49.8451 42.5078 49.2011 42.5078 48.741 42.0463L47.1769 40.477V47.8617C47.1769 48.4156 46.7169 48.9694 46.0728 48.9694C45.5208 48.9694 44.9687 48.5079 44.9687 47.8617V40.477L43.4046 42.0463C42.9446 42.5078 42.3005 42.5078 41.8405 42.0463C41.6565 41.8616 41.5645 41.5847 41.5645 41.3078C41.5645 41.0309 41.6565 40.7539 41.8405 40.5693L45.2448 37.1539C45.4288 36.9693 45.7048 36.877 45.9808 36.877C46.2568 36.877 46.7169 36.877 46.9009 37.0616Z" fill="url(#paint11_linear_991_80669)"/>
</g>
</g>
<defs>
<filter id="filter0_d_991_80669" x="0.978407" y="0.989203" width="89.9162" height="104.322" filterUnits="userSpaceOnUse" color-interpolation-filters="sRGB">
<feFlood flood-opacity="0" result="BackgroundImageFix"/>
<feColorMatrix in="SourceAlpha" type="matrix" values="0 0 0 0 0 0 0 0 0 0 0 0 0 0 0 0 0 0 127 0" result="hardAlpha"/>
<feOffset dy="8.0108"/>
<feGaussianBlur stdDeviation="8.0108"/>
<feColorMatrix type="matrix" values="0 0 0 0 0.397708 0 0 0 0 0.47749 0 0 0 0 0.575 0 0 0 0.18 0"/>
<feBlend mode="normal" in2="BackgroundImageFix" result="effect1_dropShadow_991_80669"/>
<feBlend mode="normal" in="SourceGraphic" in2="effect1_dropShadow_991_80669" result="shape"/>
</filter>
<filter id="filter1_d_991_80669" x="29.2397" y="32.7559" width="33.4991" height="41.5107" filterUnits="userSpaceOnUse" color-interpolation-filters="sRGB">
<feFlood flood-opacity="0" result="BackgroundImageFix"/>
<feColorMatrix in="SourceAlpha" type="matrix" values="0 0 0 0 0 0 0 0 0 0 0 0 0 0 0 0 0 0 127 0" result="hardAlpha"/>
<feOffset dy="12.3803"/>
<feGaussianBlur stdDeviation="4.73365"/>
<feColorMatrix type="matrix" values="0 0 0 0 0.1125 0 0 0 0 0.295916 0 0 0 0 1 0 0 0 0.21 0"/>
<feBlend mode="normal" in2="BackgroundImageFix" result="effect1_dropShadow_991_80669"/>
<feBlend mode="normal" in="SourceGraphic" in2="effect1_dropShadow_991_80669" result="shape"/>
</filter>
<linearGradient id="paint0_linear_991_80669" x1="46.1546" y1="31.3349" x2="46.1546" y2="56.1384" gradientUnits="userSpaceOnUse">
<stop stop-color="#83A6FF"/>
<stop offset="1" stop-color="#5A78FF"/>
</linearGradient>
<linearGradient id="paint1_linear_991_80669" x1="41.3701" y1="56.4538" x2="41.3701" y2="58.417" gradientUnits="userSpaceOnUse">
<stop stop-color="#83A6FF"/>
<stop offset="1" stop-color="#5A78FF"/>
</linearGradient>
<linearGradient id="paint2_linear_991_80669" x1="41.704" y1="62.404" x2="41.704" y2="63.6417" gradientUnits="userSpaceOnUse">
<stop stop-color="#83A6FF"/>
<stop offset="1" stop-color="#5A78FF"/>
</linearGradient>
<linearGradient id="paint3_linear_991_80669" x1="45.841" y1="58.0102" x2="45.841" y2="59.672" gradientUnits="userSpaceOnUse">
<stop stop-color="#83A6FF"/>
<stop offset="1" stop-color="#5A78FF"/>
</linearGradient>
<linearGradient id="paint4_linear_991_80669" x1="50.4773" y1="55.0882" x2="50.4773" y2="57.1717" gradientUnits="userSpaceOnUse">
<stop stop-color="#83A6FF"/>
<stop offset="1" stop-color="#5A78FF"/>
</linearGradient>
<linearGradient id="paint5_linear_991_80669" x1="48.8983" y1="63.2396" x2="48.8983" y2="64.4656" gradientUnits="userSpaceOnUse">
<stop stop-color="#83A6FF"/>
<stop offset="1" stop-color="#5A78FF"/>
</linearGradient>
<linearGradient id="paint6_linear_991_80669" x1="45.2937" y1="65.2221" x2="45.2937" y2="66.6082" gradientUnits="userSpaceOnUse">
<stop stop-color="#83A6FF"/>
<stop offset="1" stop-color="#5A78FF"/>
</linearGradient>
<linearGradient id="paint7_linear_991_80669" x1="46.1445" y1="72.816" x2="46.1445" y2="73.4566" gradientUnits="userSpaceOnUse">
<stop stop-color="#83A6FF"/>
<stop offset="1" stop-color="#5A78FF"/>
</linearGradient>
<linearGradient id="paint8_linear_991_80669" x1="44.3697" y1="69.137" x2="44.3697" y2="69.9875" gradientUnits="userSpaceOnUse">
<stop stop-color="#83A6FF"/>
<stop offset="1" stop-color="#5A78FF"/>
</linearGradient>
<linearGradient id="paint9_linear_991_80669" x1="46.1568" y1="31.8994" x2="46.1568" y2="55.2295" gradientUnits="userSpaceOnUse">
<stop stop-color="#83A6FF"/>
<stop offset="1" stop-color="#5A78FF"/>
</linearGradient>
<linearGradient id="paint10_linear_991_80669" x1="46.141" y1="42.8566" x2="52.7536" y2="49.4476" gradientUnits="userSpaceOnUse">
<stop stop-color="#4F6AFF"/>
<stop offset="1" stop-color="#657EFF" stop-opacity="0"/>
</linearGradient>
<linearGradient id="paint11_linear_991_80669" x1="50.4281" y1="47.1511" x2="44.2261" y2="40.9692" gradientUnits="userSpaceOnUse">
<stop offset="0.0113208" stop-color="#C2D1FF"/>
<stop offset="1" stop-color="white"/>
</linearGradient>
</defs>
</svg>
