<svg width="164" height="165" viewBox="0 0 164 165" fill="none" xmlns="http://www.w3.org/2000/svg">
<path d="M82 163C127.011 163 163.5 126.511 163.5 81.5C163.5 36.4888 127.011 0 82 0C36.9888 0 0.5 36.4888 0.5 81.5C0.5 126.511 36.9888 163 82 163Z" fill="#D2E1F8"/>
<path d="M73.0341 48.0977L64.822 58.1112C63.4323 59.759 60.9055 60.0125 59.1367 58.4915L49.2822 50.2525L73.0341 48.0977Z" fill="#CED7E2"/>
<path d="M92.2384 37.196L80.4888 45.6885C78.4674 47.2095 75.5615 46.7025 74.0455 44.5477L65.707 32.6328H65.8334L92.2384 37.196Z" fill="#CED7E2"/>
<path d="M120.159 57.3495L104.746 55.8285C102.093 55.575 100.071 53.1666 100.45 50.378L102.093 34.9141H102.219L120.159 57.3495Z" fill="#CED7E2"/>
<g filter="url(#filter0_d_682_54779)">
<path d="M120.159 52.7863V124.149C120.159 128.332 116.874 131.627 112.705 131.627H48.1455C43.9762 131.627 40.6914 128.332 40.6914 124.149V39.8574C40.6914 35.6745 44.1026 32.3789 48.1455 32.3789H99.8185L120.159 52.7863Z" fill="white"/>
</g>
<path d="M120.159 52.7863L104.62 52.913C101.84 52.913 99.6924 50.7582 99.6924 47.9696V32.3789H99.8187L120.159 52.7863Z" fill="#E1EAF2"/>
<path d="M105.882 91.4471H56.7363C55.5992 91.4471 54.7148 90.5598 54.7148 89.419V61.0261C54.7148 59.8853 55.5992 58.998 56.7363 58.998H105.882C107.02 58.998 107.904 59.8853 107.904 61.0261V89.2922C108.03 90.433 107.02 91.4471 105.882 91.4471Z" fill="#E6EDF5"/>
<path d="M83.1409 87.011H62.6738L72.9074 75.3496L83.1409 87.011Z" fill="#CED7E2"/>
<path d="M100.197 87.0108H70.6338L85.4156 70.2793L100.197 87.0108Z" fill="white"/>
<path d="M70.3814 71.1673C72.5444 71.1673 74.2979 69.4081 74.2979 67.238C74.2979 65.0678 72.5444 63.3086 70.3814 63.3086C68.2183 63.3086 66.4648 65.0678 66.4648 67.238C66.4648 69.4081 68.2183 71.1673 70.3814 71.1673Z" fill="#CED7E2"/>
<path d="M106.894 101.46H56.2315C55.4735 101.46 54.8418 100.827 54.8418 100.066C54.8418 99.3056 55.4735 98.6719 56.2315 98.6719H106.894C107.652 98.6719 108.284 99.3056 108.284 100.066C108.284 100.827 107.652 101.46 106.894 101.46Z" fill="#CED7E2"/>
<path d="M106.894 109.32H56.2315C55.4735 109.32 54.8418 108.686 54.8418 107.926C54.8418 107.165 55.4735 106.531 56.2315 106.531H106.894C107.652 106.531 108.284 107.165 108.284 107.926C108.284 108.686 107.652 109.32 106.894 109.32Z" fill="#CED7E2"/>
<path d="M81.2468 115.783C81.2468 116.543 80.6151 117.177 79.8571 117.177H56.2315C55.4735 117.177 54.8418 116.543 54.8418 115.783C54.8418 115.022 55.4735 114.389 56.2315 114.389H79.8571C80.6151 114.389 81.2468 115.022 81.2468 115.783Z" fill="#CED7E2"/>
<path d="M82.2575 43.7886H56.2315C55.4735 43.7886 54.8418 43.1548 54.8418 42.3943C54.8418 41.6338 55.4735 41 56.2315 41H82.2575C83.0156 41 83.6473 41.6338 83.6473 42.3943C83.6473 43.1548 83.0156 43.7886 82.2575 43.7886Z" fill="#CED7E2"/>
<path d="M67.7285 51.646H56.2315C55.4735 51.646 54.8418 51.0122 54.8418 50.2517C54.8418 49.4912 55.4735 48.8574 56.2315 48.8574H67.7285C68.4865 48.8574 69.1182 49.4912 69.1182 50.2517C68.9919 51.0122 68.4865 51.646 67.7285 51.646Z" fill="#CED7E2"/>
<g filter="url(#filter1_d_682_54779)">
<ellipse cx="80.5" cy="78.5" rx="10" ry="13.5" fill="#6382FF"/>
</g>
<path d="M96.4078 77.7585C95.7761 69.8998 89.2065 63.4353 81.3734 63.1818C77.9622 63.0551 74.6774 63.9424 72.0242 65.7169C67.7287 68.5055 64.9492 73.4489 64.9492 78.8993C64.9492 84.0962 67.476 88.7861 71.3925 91.7015C71.8979 92.0817 72.2769 92.5888 72.4033 93.2225C72.6559 94.2366 73.6667 95.3773 75.0564 95.3773C75.6881 95.3773 76.3198 95.1238 76.8252 94.7436C77.0778 94.4901 77.4569 94.4901 77.7095 94.6168C78.0886 94.7436 78.3412 94.9971 78.2149 95.5041C78.2149 95.6309 78.2149 95.6309 78.2149 95.6309C78.2149 96.5181 78.9729 97.2787 79.8573 97.2787C80.7417 97.2787 81.4997 96.5181 81.4997 95.6309C81.4997 95.2506 81.7524 94.8703 82.2578 94.7436C90.7225 93.7295 97.0395 86.3778 96.4078 77.7585Z" fill="url(#paint0_linear_682_54779)"/>
<path d="M74.172 100.32C74.9395 100.32 75.5617 99.6956 75.5617 98.9255C75.5617 98.1555 74.9395 97.5312 74.172 97.5312C73.4044 97.5312 72.7822 98.1555 72.7822 98.9255C72.7822 99.6956 73.4044 100.32 74.172 100.32Z" fill="url(#paint1_linear_682_54779)"/>
<path d="M74.5514 107.419C75.0398 107.419 75.4358 107.022 75.4358 106.532C75.4358 106.042 75.0398 105.645 74.5514 105.645C74.0629 105.645 73.667 106.042 73.667 106.532C73.667 107.022 74.0629 107.419 74.5514 107.419Z" fill="url(#paint2_linear_682_54779)"/>
<path d="M80.2367 101.969C80.8646 101.969 81.3737 101.458 81.3737 100.828C81.3737 100.198 80.8646 99.6875 80.2367 99.6875C79.6087 99.6875 79.0996 100.198 79.0996 100.828C79.0996 101.458 79.6087 101.969 80.2367 101.969Z" fill="url(#paint3_linear_682_54779)"/>
<path d="M86.6798 98.5464C87.4473 98.5464 88.0695 97.9222 88.0695 97.1521C88.0695 96.3821 87.4473 95.7578 86.6798 95.7578C85.9122 95.7578 85.29 96.3821 85.29 97.1521C85.29 97.9222 85.9122 98.5464 86.6798 98.5464Z" fill="url(#paint4_linear_682_54779)"/>
<path d="M84.5318 108.56C85.0203 108.56 85.4162 108.162 85.4162 107.672C85.4162 107.182 85.0203 106.785 84.5318 106.785C84.0434 106.785 83.6475 107.182 83.6475 107.672C83.6475 108.162 84.0434 108.56 84.5318 108.56Z" fill="url(#paint5_linear_682_54779)"/>
<path d="M79.6045 111.602C80.1627 111.602 80.6152 111.148 80.6152 110.588C80.6152 110.028 80.1627 109.574 79.6045 109.574C79.0463 109.574 78.5938 110.028 78.5938 110.588C78.5938 111.148 79.0463 111.602 79.6045 111.602Z" fill="url(#paint6_linear_682_54779)"/>
<path d="M80.7413 120.854C80.9506 120.854 81.1203 120.684 81.1203 120.474C81.1203 120.264 80.9506 120.094 80.7413 120.094C80.532 120.094 80.3623 120.264 80.3623 120.474C80.3623 120.684 80.532 120.854 80.7413 120.854Z" fill="url(#paint7_linear_682_54779)"/>
<path d="M78.2147 116.164C78.5636 116.164 78.8464 115.88 78.8464 115.53C78.8464 115.18 78.5636 114.896 78.2147 114.896C77.8658 114.896 77.583 115.18 77.583 115.53C77.583 115.88 77.8658 116.164 78.2147 116.164Z" fill="url(#paint8_linear_682_54779)"/>
<path d="M72.0242 65.5898C74.551 63.942 77.4569 63.0547 80.7417 63.0547C89.4591 63.0547 96.5342 70.1529 96.5342 78.8989C96.5342 87.645 89.4591 94.7432 80.7417 94.7432C72.0242 94.7432 64.9492 87.645 64.9492 78.8989C64.9492 73.3218 67.7287 68.5051 72.0242 65.5898Z" fill="url(#paint9_linear_682_54779)"/>
<path d="M95.3974 84.6032L86.4272 75.6036L83.3951 74.4629L80.1102 73.1953L75.0566 77.7585L80.3629 83.0821L79.6049 86.758L86.4272 93.6027L95.3974 84.6032Z" fill="url(#paint10_linear_682_54779)"/>
<path d="M81.7525 70.9137L86.4271 75.6036C87.0588 76.2373 87.0588 77.1246 86.4271 77.7584C85.7954 78.3922 84.911 78.3922 84.2793 77.7584L82.1315 75.6036V85.7439C82.1315 86.5044 81.4998 87.2649 80.6155 87.2649C79.8574 87.2649 79.0994 86.6312 79.0994 85.7439V75.6036L76.9516 77.7584C76.3199 78.3922 75.4355 78.3922 74.8038 77.7584C74.5511 77.5049 74.4248 77.1246 74.4248 76.7444C74.4248 76.3641 74.5511 75.9838 74.8038 75.7303L79.4784 71.0404C79.7311 70.7869 80.1101 70.6602 80.4891 70.6602C80.8681 70.6602 81.4998 70.6602 81.7525 70.9137Z" fill="url(#paint11_linear_682_54779)"/>
<defs>
<filter id="filter0_d_682_54779" x="18.6914" y="21.3789" width="123.468" height="143.248" filterUnits="userSpaceOnUse" color-interpolation-filters="sRGB">
<feFlood flood-opacity="0" result="BackgroundImageFix"/>
<feColorMatrix in="SourceAlpha" type="matrix" values="0 0 0 0 0 0 0 0 0 0 0 0 0 0 0 0 0 0 127 0" result="hardAlpha"/>
<feOffset dy="11"/>
<feGaussianBlur stdDeviation="11"/>
<feColorMatrix type="matrix" values="0 0 0 0 0.397708 0 0 0 0 0.47749 0 0 0 0 0.575 0 0 0 0.18 0"/>
<feBlend mode="normal" in2="BackgroundImageFix" result="effect1_dropShadow_682_54779"/>
<feBlend mode="normal" in="SourceGraphic" in2="effect1_dropShadow_682_54779" result="shape"/>
</filter>
<filter id="filter1_d_682_54779" x="57.5" y="65" width="46" height="57" filterUnits="userSpaceOnUse" color-interpolation-filters="sRGB">
<feFlood flood-opacity="0" result="BackgroundImageFix"/>
<feColorMatrix in="SourceAlpha" type="matrix" values="0 0 0 0 0 0 0 0 0 0 0 0 0 0 0 0 0 0 127 0" result="hardAlpha"/>
<feOffset dy="17"/>
<feGaussianBlur stdDeviation="6.5"/>
<feColorMatrix type="matrix" values="0 0 0 0 0.1125 0 0 0 0 0.295916 0 0 0 0 1 0 0 0 0.21 0"/>
<feBlend mode="normal" in2="BackgroundImageFix" result="effect1_dropShadow_682_54779"/>
<feBlend mode="normal" in="SourceGraphic" in2="effect1_dropShadow_682_54779" result="shape"/>
</filter>
<linearGradient id="paint0_linear_682_54779" x1="80.7248" y1="63.0491" x2="80.7248" y2="97.108" gradientUnits="userSpaceOnUse">
<stop stop-color="#83A6FF"/>
<stop offset="1" stop-color="#5A78FF"/>
</linearGradient>
<linearGradient id="paint1_linear_682_54779" x1="74.1567" y1="97.5402" x2="74.1567" y2="100.236" gradientUnits="userSpaceOnUse">
<stop stop-color="#83A6FF"/>
<stop offset="1" stop-color="#5A78FF"/>
</linearGradient>
<linearGradient id="paint2_linear_682_54779" x1="74.6123" y1="105.712" x2="74.6123" y2="107.412" gradientUnits="userSpaceOnUse">
<stop stop-color="#83A6FF"/>
<stop offset="1" stop-color="#5A78FF"/>
</linearGradient>
<linearGradient id="paint3_linear_682_54779" x1="80.2947" y1="99.68" x2="80.2947" y2="101.962" gradientUnits="userSpaceOnUse">
<stop stop-color="#83A6FF"/>
<stop offset="1" stop-color="#5A78FF"/>
</linearGradient>
<linearGradient id="paint4_linear_682_54779" x1="86.6616" y1="95.6657" x2="86.6616" y2="98.5266" gradientUnits="userSpaceOnUse">
<stop stop-color="#83A6FF"/>
<stop offset="1" stop-color="#5A78FF"/>
</linearGradient>
<linearGradient id="paint5_linear_682_54779" x1="84.4947" y1="106.859" x2="84.4947" y2="108.543" gradientUnits="userSpaceOnUse">
<stop stop-color="#83A6FF"/>
<stop offset="1" stop-color="#5A78FF"/>
</linearGradient>
<linearGradient id="paint6_linear_682_54779" x1="79.5442" y1="109.583" x2="79.5442" y2="111.486" gradientUnits="userSpaceOnUse">
<stop stop-color="#83A6FF"/>
<stop offset="1" stop-color="#5A78FF"/>
</linearGradient>
<linearGradient id="paint7_linear_682_54779" x1="80.7109" y1="120.007" x2="80.7109" y2="120.887" gradientUnits="userSpaceOnUse">
<stop stop-color="#83A6FF"/>
<stop offset="1" stop-color="#5A78FF"/>
</linearGradient>
<linearGradient id="paint8_linear_682_54779" x1="78.2731" y1="114.957" x2="78.2731" y2="116.125" gradientUnits="userSpaceOnUse">
<stop stop-color="#83A6FF"/>
<stop offset="1" stop-color="#5A78FF"/>
</linearGradient>
<linearGradient id="paint9_linear_682_54779" x1="80.7278" y1="63.8257" x2="80.7278" y2="95.8614" gradientUnits="userSpaceOnUse">
<stop stop-color="#83A6FF"/>
<stop offset="1" stop-color="#5A78FF"/>
</linearGradient>
<linearGradient id="paint10_linear_682_54779" x1="80.7079" y1="78.8719" x2="89.788" y2="87.9223" gradientUnits="userSpaceOnUse">
<stop stop-color="#4F6AFF"/>
<stop offset="1" stop-color="#657EFF" stop-opacity="0"/>
</linearGradient>
<linearGradient id="paint11_linear_682_54779" x1="86.5959" y1="84.768" x2="78.0796" y2="76.2794" gradientUnits="userSpaceOnUse">
<stop offset="0.0113208" stop-color="#C2D1FF"/>
<stop offset="1" stop-color="white"/>
</linearGradient>
</defs>
</svg>
