<svg width="147" height="138" viewBox="0 0 147 138" fill="none" xmlns="http://www.w3.org/2000/svg">
<path d="M72.73 120C100.72 120 123.411 97.2541 123.411 69.1954C123.411 41.1367 100.72 18.3906 72.73 18.3906C44.7396 18.3906 22.0488 41.1367 22.0488 69.1954C22.0488 97.2541 44.7396 120 72.73 120Z" fill="#EAEEF9"/>
<path d="M35.4083 36.2793H107.504C110.359 36.2793 112.603 38.5282 112.603 41.3904V87.0841C112.603 89.9463 110.359 92.1952 107.504 92.1952H35.4083C32.553 92.1952 30.3096 89.9463 30.3096 87.0841V41.3904C30.3096 38.5282 32.655 36.2793 35.4083 36.2793Z" fill="#DAE2EB"/>
<path d="M131.639 56.554C133.219 55.1068 133.33 52.6497 131.886 51.066C130.442 49.4824 127.991 49.3717 126.411 50.819C124.831 52.2662 124.721 54.7233 126.165 56.307C127.609 57.8907 130.06 58.0013 131.639 56.554Z" fill="#EAEEF9"/>
<path d="M43.4438 23.4751C44.7828 23.0388 45.5154 21.597 45.0802 20.2548C44.645 18.9125 43.2068 18.1781 41.8678 18.6144C40.5288 19.0506 39.7962 20.4924 40.2314 21.8346C40.6666 23.1769 42.1048 23.9113 43.4438 23.4751Z" fill="#EAEEF9"/>
<path d="M48.4601 15.2217C49.4175 15.2217 50.1937 14.4436 50.1937 13.4839C50.1937 12.5241 49.4175 11.7461 48.4601 11.7461C47.5027 11.7461 46.7266 12.5241 46.7266 13.4839C46.7266 14.4436 47.5027 15.2217 48.4601 15.2217Z" fill="url(#paint0_linear_321_47361)"/>
<path d="M130.856 39.5504C131.757 39.5504 132.488 38.8182 132.488 37.9149C132.488 37.0116 131.757 36.2793 130.856 36.2793C129.955 36.2793 129.225 37.0116 129.225 37.9149C129.225 38.8182 129.955 39.5504 130.856 39.5504Z" fill="url(#paint1_linear_321_47361)"/>
<path d="M90.8385 15.3117C91.2959 14.8928 91.3278 14.1815 90.9099 13.7231C90.492 13.2647 89.7824 13.2327 89.3251 13.6516C88.8678 14.0705 88.8359 14.7818 89.2538 15.2402C89.6717 15.6987 90.3812 15.7307 90.8385 15.3117Z" fill="#EAEEF9"/>
<path d="M114.047 65.5964V88.0855C114.047 90.9477 111.702 93.4013 108.744 93.4013H34.6092C31.754 93.4013 29.3066 91.0499 29.3066 88.0855V63.6543" stroke="#1676EE" stroke-width="3" stroke-linecap="round" stroke-linejoin="round"/>
<g filter="url(#filter0_d_321_47361)">
<path d="M107.653 53H84.3378C82.0689 53 79.8783 53.7828 78.1571 55.1915L72.0544 60.2002C70.3332 61.6088 68.1426 62.3913 65.8737 62.3913H39.3507C36.6906 62.3913 34.5 64.5828 34.5 67.2436C34.5 67.4784 34.5001 67.7131 34.5783 67.9479L39.4291 93.774C39.8202 96.2001 41.8544 98 44.2798 98H100.768C103.193 98 105.227 96.2784 105.619 93.8523L112.426 58.5566C112.895 55.8957 111.095 53.4696 108.435 53C108.201 53 107.888 53 107.653 53Z" fill="white"/>
</g>
<g filter="url(#filter1_d_321_47361)">
<path d="M118.228 46.0723H87.8393C84.8821 46.0723 82.0269 47.0948 79.7835 48.9348L71.8294 55.477C69.586 57.317 66.7308 58.339 63.7736 58.339H29.2042C25.7371 58.339 22.8818 61.2015 22.8818 64.677C22.8818 64.9837 22.8819 65.2903 22.9839 65.5969L29.3063 99.3305C29.8161 102.499 32.4674 104.85 35.6286 104.85H109.254C112.415 104.85 115.066 102.602 115.576 99.4328L124.448 53.3302C125.06 49.8546 122.715 46.6856 119.247 46.0723C118.942 46.0723 118.534 46.0723 118.228 46.0723Z" fill="white"/>
</g>
<path d="M59.3881 81.0324C61.1903 81.0324 62.6512 79.5677 62.6512 77.7611C62.6512 75.9545 61.1903 74.4902 59.3881 74.4902C57.5859 74.4902 56.125 75.9545 56.125 77.7611C56.125 79.5677 57.5859 81.0324 59.3881 81.0324Z" fill="#1C3754"/>
<path d="M85.0864 80.9308C86.8886 80.9308 88.3495 79.4666 88.3495 77.66C88.3495 75.8534 86.8886 74.3887 85.0864 74.3887C83.2842 74.3887 81.8232 75.8534 81.8232 77.66C81.8232 79.4666 83.2842 80.9308 85.0864 80.9308Z" fill="#1C3754"/>
<g filter="url(#filter2_d_321_47361)">
<path d="M123.137 102.511C122.729 104.249 122.117 105.987 121.403 107.52C119.466 111.2 116.509 114.164 112.838 116.004C109.065 117.947 104.578 118.662 99.9888 117.742C89.3835 115.493 82.5512 105.169 84.7947 94.5377C87.0381 83.9065 97.3375 77.0576 107.943 79.3065C111.716 80.1242 115.081 81.9643 117.834 84.6221C122.525 89.3243 124.463 96.071 123.137 102.511Z" fill="url(#paint2_linear_321_47361)"/>
</g>
<path d="M121.389 107.509C119.452 111.189 116.495 114.154 112.823 115.994L96.3037 99.4337L99.3629 98.2069L104.972 97.9004H111.804L121.389 107.509Z" fill="url(#paint3_linear_321_47361)"/>
<path d="M110.172 96.7748H105.685V92.2771C105.685 91.357 104.971 90.5391 103.951 90.5391C103.033 90.5391 102.218 91.2548 102.218 92.2771V96.7748H97.7306C96.8128 96.7748 95.9971 97.4905 95.9971 98.5128C95.9971 99.535 96.7108 100.25 97.7306 100.25H102.218V104.748C102.218 105.668 102.931 106.486 103.951 106.486C104.869 106.486 105.685 105.771 105.685 104.748V100.25H110.172C111.089 100.25 111.905 99.535 111.905 98.5128C111.905 97.4905 111.089 96.7748 110.172 96.7748Z" fill="url(#paint4_linear_321_47361)"/>
<path d="M68.2432 57.3372C64.6741 50.386 63.8583 41.9015 66.2037 34.337C68.5491 26.7725 73.9537 20.2303 80.786 16.5502C82.9274 15.4258 85.2728 14.5058 87.7202 14.4036C90.1676 14.3013 92.717 15.1191 94.3485 17.0614C95.9801 18.9014 96.2861 21.8658 94.9604 23.9103C93.5327 25.8525 90.7794 26.5681 88.434 26.057C84.763 25.3414 81.7037 22.4792 80.786 19.0036C79.8682 15.528 81.0919 11.4391 83.8452 9.08797C85.6807 7.45241 88.1281 6.63462 90.4735 5.91906C101.691 2.64793 113.826 2.23904 125.247 4.69239" stroke="#C9D4E2" stroke-miterlimit="10" stroke-dasharray="4 4"/>
<path d="M75.3816 84.5293H69.1611V86.0626H75.3816V84.5293Z" fill="#1C3754"/>
<path d="M131.264 2.0347C131.162 3.56805 131.06 4.89695 129.938 5.20361C128.816 5.51028 128.306 4.48805 127.592 3.05693C126.879 1.72804 127.287 0.399137 128.51 0.092468C129.734 -0.214201 131.467 0.194691 131.264 2.0347Z" fill="#DAE2EB"/>
<path d="M130.142 9.19062C130.448 7.35061 130.754 6.4306 129.734 5.91949C128.613 5.40837 127.899 6.32838 126.777 7.55505C125.757 8.67951 126.369 10.2128 127.389 10.724C128.511 11.3373 129.836 10.724 130.142 9.19062Z" fill="#DAE2EB"/>
<path d="M131.467 5.91862C131.365 6.63418 130.855 7.1453 130.142 7.24752C129.836 7.24752 129.53 7.24752 129.122 7.24752C127.694 7.04308 126.572 6.12307 126.674 5.20306C126.776 4.28306 128.102 3.77194 129.632 3.97639C129.938 3.97639 130.244 4.07861 130.447 4.18083C131.161 4.38528 131.569 5.10084 131.467 5.91862C131.467 5.91862 131.467 5.8164 131.467 5.91862Z" fill="#1C3754"/>
<path d="M19.9092 34.0311C19.9092 32.2934 19.9092 30.6578 21.1329 30.1467C22.4585 29.6356 23.1724 30.8622 24.0901 32.4978C25.0079 34.0311 24.6 35.5645 23.2743 36.0756C22.1526 36.5867 19.9092 36.28 19.9092 34.0311Z" fill="#DAE2EB"/>
<path d="M20.6223 25.6486C20.4183 27.7953 20.1124 28.9198 21.4381 29.4309C22.7637 29.942 23.4776 28.8175 24.7012 27.182C25.721 25.7508 25.0072 24.0131 23.6815 23.5019C22.3558 22.9908 20.8262 23.9108 20.6223 25.6486Z" fill="#DAE2EB"/>
<path d="M19.5 29.6354C19.5 28.8176 20.1118 28.2043 20.8257 28.1021C21.1316 27.9998 21.5395 27.9998 21.9474 28.1021C23.579 28.2043 24.9046 29.1243 24.8027 30.1465C24.7007 31.1687 23.375 31.8843 21.7434 31.6799C21.4375 31.6799 21.1316 31.5776 20.8257 31.4754C20.0099 31.271 19.5 30.4532 19.5 29.6354Z" fill="#1C3754"/>
<path d="M26.332 29.9414C36.8354 29.9414 56.2105 36.0748 56.5164 58.4616" stroke="#C9D4E2" stroke-miterlimit="10" stroke-dasharray="4 4"/>
<defs>
<filter id="filter0_d_321_47361" x="24.5" y="34" width="98" height="65" filterUnits="userSpaceOnUse" color-interpolation-filters="sRGB">
<feFlood flood-opacity="0" result="BackgroundImageFix"/>
<feColorMatrix in="SourceAlpha" type="matrix" values="0 0 0 0 0 0 0 0 0 0 0 0 0 0 0 0 0 0 127 0" result="hardAlpha"/>
<feOffset dy="-9"/>
<feGaussianBlur stdDeviation="5"/>
<feColorMatrix type="matrix" values="0 0 0 0 0.397708 0 0 0 0 0.47749 0 0 0 0 0.575 0 0 0 0.13 0"/>
<feBlend mode="normal" in2="BackgroundImageFix" result="effect1_dropShadow_321_47361"/>
<feBlend mode="normal" in="SourceGraphic" in2="effect1_dropShadow_321_47361" result="shape"/>
</filter>
<filter id="filter1_d_321_47361" x="0.881836" y="35.0723" width="145.663" height="102.777" filterUnits="userSpaceOnUse" color-interpolation-filters="sRGB">
<feFlood flood-opacity="0" result="BackgroundImageFix"/>
<feColorMatrix in="SourceAlpha" type="matrix" values="0 0 0 0 0 0 0 0 0 0 0 0 0 0 0 0 0 0 127 0" result="hardAlpha"/>
<feOffset dy="11"/>
<feGaussianBlur stdDeviation="11"/>
<feColorMatrix type="matrix" values="0 0 0 0 0.397708 0 0 0 0 0.47749 0 0 0 0 0.575 0 0 0 0.18 0"/>
<feBlend mode="normal" in2="BackgroundImageFix" result="effect1_dropShadow_321_47361"/>
<feBlend mode="normal" in="SourceGraphic" in2="effect1_dropShadow_321_47361" result="shape"/>
</filter>
<filter id="filter2_d_321_47361" x="76.3682" y="75.8789" width="55.1768" height="55.2617" filterUnits="userSpaceOnUse" color-interpolation-filters="sRGB">
<feFlood flood-opacity="0" result="BackgroundImageFix"/>
<feColorMatrix in="SourceAlpha" type="matrix" values="0 0 0 0 0 0 0 0 0 0 0 0 0 0 0 0 0 0 127 0" result="hardAlpha"/>
<feOffset dy="5"/>
<feGaussianBlur stdDeviation="4"/>
<feColorMatrix type="matrix" values="0 0 0 0 0.1125 0 0 0 0 0.295916 0 0 0 0 1 0 0 0 0.22 0"/>
<feBlend mode="normal" in2="BackgroundImageFix" result="effect1_dropShadow_321_47361"/>
<feBlend mode="normal" in="SourceGraphic" in2="effect1_dropShadow_321_47361" result="shape"/>
</filter>
<linearGradient id="paint0_linear_321_47361" x1="46.7789" y1="13.4405" x2="50.1495" y2="13.4405" gradientUnits="userSpaceOnUse">
<stop stop-color="#FF66A9"/>
<stop offset="1" stop-color="#F53689"/>
</linearGradient>
<linearGradient id="paint1_linear_321_47361" x1="129.281" y1="37.9557" x2="132.447" y2="37.9557" gradientUnits="userSpaceOnUse">
<stop stop-color="#FF66A9"/>
<stop offset="1" stop-color="#F53689"/>
</linearGradient>
<linearGradient id="paint2_linear_321_47361" x1="84.3793" y1="98.5283" x2="123.564" y2="98.5283" gradientUnits="userSpaceOnUse">
<stop stop-color="#83A6FF"/>
<stop offset="1" stop-color="#5A78FF"/>
</linearGradient>
<linearGradient id="paint3_linear_321_47361" x1="104.512" y1="99.1453" x2="115.154" y2="109.761" gradientUnits="userSpaceOnUse">
<stop stop-color="#4F6AFF"/>
<stop offset="1" stop-color="#657EFF" stop-opacity="0"/>
</linearGradient>
<linearGradient id="paint4_linear_321_47361" x1="108.886" y1="103.455" x2="100.476" y2="95.0661" gradientUnits="userSpaceOnUse">
<stop offset="0.0113208" stop-color="#C2D1FF"/>
<stop offset="1" stop-color="white"/>
</linearGradient>
</defs>
</svg>
