<svg width="20" height="20" viewBox="0 0 20 20" fill="none" xmlns="http://www.w3.org/2000/svg">
<path fill-rule="evenodd" clip-rule="evenodd" d="M12.2423 1.75817C11.8567 1.6656 11.4569 1.66579 10.9277 1.66604L8.13193 1.66607C7.46112 1.66606 6.90748 1.66605 6.45649 1.7029C5.98807 1.74117 5.55749 1.8233 5.15304 2.02938C4.52583 2.34896 4.0159 2.85889 3.69632 3.4861C3.49024 3.89055 3.40811 4.32113 3.36984 4.78955C3.33299 5.24054 3.333 5.79417 3.33301 6.46497V13.5338C3.333 14.2046 3.33299 14.7583 3.36984 15.2093C3.40811 15.6777 3.49024 16.1083 3.69632 16.5127C4.0159 17.1399 4.52583 17.6498 5.15304 17.9694C5.55749 18.1755 5.98807 18.2576 6.45649 18.2959C6.90748 18.3328 7.46111 18.3327 8.13191 18.3327H11.8674C12.5382 18.3327 13.0919 18.3328 13.5429 18.2959C14.0113 18.2576 14.4419 18.1755 14.8463 17.9694C15.4735 17.6498 15.9835 17.1399 16.303 16.5127C16.5091 16.1083 16.5912 15.6777 16.6295 15.2093C16.6664 14.7583 16.6664 14.2046 16.6663 13.5338L16.6664 7.40469C16.6666 6.87553 16.6668 6.47569 16.5742 6.09012C16.4926 5.75 16.3579 5.42485 16.1751 5.12661C15.968 4.78851 15.6851 4.50592 15.3107 4.13193L14.2005 3.02167C13.8265 2.64731 13.5439 2.36446 13.2058 2.15727C12.9076 1.97451 12.5824 1.83982 12.2423 1.75817ZM10.833 3.33274H8.16634C7.45253 3.33274 6.96728 3.33338 6.59221 3.36403C6.22686 3.39388 6.04002 3.44798 5.90969 3.51439C5.59609 3.67418 5.34112 3.92915 5.18133 4.24275C5.11492 4.37308 5.06082 4.55992 5.03097 4.92527C5.00032 5.30034 4.99968 5.78559 4.99968 6.4994V13.4994C4.99968 14.2132 5.00032 14.6985 5.03097 15.0735C5.06082 15.4389 5.11492 15.6257 5.18133 15.7561C5.34112 16.0697 5.59609 16.3246 5.90969 16.4844C6.04002 16.5508 6.22686 16.6049 6.59221 16.6348C6.96728 16.6654 7.45253 16.6661 8.16634 16.6661H11.833C12.5468 16.6661 13.0321 16.6654 13.4071 16.6348C13.7725 16.6049 13.9593 16.5508 14.0897 16.4844C14.4033 16.3246 14.6582 16.0697 14.818 15.7561C14.8844 15.6257 14.9385 15.4389 14.9684 15.0735C14.999 14.6985 14.9997 14.2132 14.9997 13.4994V7.4994H13.333C11.9523 7.4994 10.833 6.38011 10.833 4.9994V3.33274ZM14.633 5.83273C14.5328 5.71431 14.3729 5.55115 14.0722 5.25042L13.082 4.26023C12.7813 3.9595 12.6181 3.79956 12.4997 3.69942V4.9994C12.4997 5.45964 12.8728 5.83273 13.333 5.83273H14.633Z" fill="#0067DF"/>
<path d="M10.8333 9.16732C10.8333 8.70708 10.4602 8.33398 10 8.33398C9.53976 8.33398 9.16667 8.70708 9.16667 9.16732V12.1555L8.92259 11.9114C8.59715 11.586 8.06951 11.586 7.74408 11.9114C7.41864 12.2368 7.41864 12.7645 7.74408 13.0899L9.41074 14.7566C9.73618 15.082 10.2638 15.082 10.5893 14.7566L12.2559 13.0899C12.5814 12.7645 12.5814 12.2368 12.2559 11.9114C11.9305 11.586 11.4028 11.586 11.0774 11.9114L10.8333 12.1555V9.16732Z" fill="#0067DF"/>
</svg>
