<svg width="18" height="19" viewBox="0 0 18 19" fill="none" xmlns="http://www.w3.org/2000/svg">
<path fill-rule="evenodd" clip-rule="evenodd" d="M11.0184 2.08294C10.6713 1.99963 10.3115 1.9998 9.83524 2.00002L7.31903 2.00005C6.7153 2.00004 6.21703 2.00003 5.81113 2.03319C5.38956 2.06764 5.00203 2.14156 4.63803 2.32703C4.07354 2.61465 3.6146 3.07359 3.32698 3.63808C3.14151 4.00208 3.06759 4.3896 3.03315 4.81118C2.99998 5.21707 2.99999 5.71534 3 6.31906V12.681C2.99999 13.2847 2.99998 13.783 3.03315 14.1889C3.06759 14.6105 3.14151 14.998 3.32698 15.362C3.6146 15.9265 4.07354 16.3854 4.63803 16.6731C5.00203 16.8585 5.38956 16.9325 5.81113 16.9669C6.21702 17.0001 6.71529 17.0001 7.31901 17H10.681C11.2847 17.0001 11.783 17.0001 12.1889 16.9669C12.6104 16.9325 12.998 16.8585 13.362 16.6731C13.9265 16.3854 14.3854 15.9265 14.673 15.362C14.8585 14.998 14.9324 14.6105 14.9669 14.1889C15 13.783 15 13.2847 15 12.681L15 7.1648C15.0003 6.68856 15.0004 6.32871 14.9171 5.98169C14.8436 5.67558 14.7224 5.38295 14.5579 5.11453C14.3715 4.81024 14.1169 4.55591 13.78 4.21932L12.7807 3.22008C12.4441 2.88317 12.1898 2.6286 11.8855 2.44213C11.6171 2.27764 11.3245 2.15643 11.0184 2.08294ZM9.75 3.50005H7.35C6.70757 3.50005 6.27085 3.50063 5.93328 3.52821C5.60447 3.55508 5.43632 3.60377 5.31902 3.66354C5.03677 3.80735 4.8073 4.03682 4.66349 4.31906C4.60372 4.43636 4.55503 4.60451 4.52816 4.93333C4.50058 5.27089 4.5 5.70761 4.5 6.35005V12.65C4.5 13.2925 4.50058 13.7292 4.52816 14.0668C4.55503 14.3956 4.60372 14.5637 4.66349 14.681C4.8073 14.9633 5.03677 15.1927 5.31902 15.3366C5.43632 15.3963 5.60447 15.445 5.93328 15.4719C6.27085 15.4995 6.70757 15.5 7.35 15.5H10.65C11.2924 15.5 11.7292 15.4995 12.0667 15.4719C12.3955 15.445 12.5637 15.3963 12.681 15.3366C12.9632 15.1927 13.1927 14.9633 13.3365 14.681C13.3963 14.5637 13.445 14.3956 13.4718 14.0668C13.4994 13.7292 13.5 13.2925 13.5 12.65V7.25005H12C10.7574 7.25005 9.75 6.24269 9.75 5.00005V3.50005ZM13.17 5.75005C13.0799 5.64347 12.9359 5.49662 12.6653 5.22596L11.7741 4.33479C11.5034 4.06413 11.3566 3.92019 11.25 3.83007V5.00005C11.25 5.41426 11.5858 5.75005 12 5.75005H13.17Z" fill="#0067DF"/>
<path d="M9.75 8.75C9.75 8.33579 9.41421 8 9 8C8.58579 8 8.25 8.33579 8.25 8.75V11.4393L8.03033 11.2197C7.73744 10.9268 7.26256 10.9268 6.96967 11.2197C6.67678 11.5126 6.67678 11.9874 6.96967 12.2803L8.46967 13.7803C8.76256 14.0732 9.23744 14.0732 9.53033 13.7803L11.0303 12.2803C11.3232 11.9874 11.3232 11.5126 11.0303 11.2197C10.7374 10.9268 10.2626 10.9268 9.96967 11.2197L9.75 11.4393V8.75Z" fill="#0067DF"/>
</svg>
