<svg width="20" height="20" viewBox="0 0 20 20" fill="none" xmlns="http://www.w3.org/2000/svg">
<path fill-rule="evenodd" clip-rule="evenodd" d="M12.2433 1.75878C11.8577 1.66621 11.4579 1.6664 10.9287 1.66665L8.1329 1.66668C7.46209 1.66667 6.90846 1.66666 6.45746 1.70351C5.98905 1.74178 5.55846 1.82391 5.15402 2.02999C4.52681 2.34957 4.01687 2.8595 3.6973 3.48671C3.49122 3.89116 3.40908 4.32174 3.37081 4.79016C3.33397 5.24115 3.33397 5.79478 3.33398 6.46558V13.5344C3.33397 14.2052 3.33397 14.7589 3.37081 15.2099C3.40908 15.6783 3.49122 16.1089 3.6973 16.5133C4.01687 17.1405 4.52681 17.6505 5.15402 17.97C5.55846 18.1761 5.98905 18.2582 6.45746 18.2965C6.90846 18.3334 7.46208 18.3334 8.13288 18.3333H11.8684C12.5392 18.3334 13.0928 18.3334 13.5438 18.2965C14.0123 18.2582 14.4428 18.1761 14.8473 17.97C15.4745 17.6505 15.9844 17.1405 16.304 16.5133C16.5101 16.1089 16.5922 15.6783 16.6305 15.2099C16.6673 14.7589 16.6673 14.2052 16.6673 13.5344L16.6673 7.4053C16.6676 6.87614 16.6678 6.4763 16.5752 6.09073C16.4936 5.75061 16.3589 5.42546 16.1761 5.12722C15.9689 4.78912 15.6861 4.50653 15.3117 4.13254L14.2015 3.02228C13.8275 2.64792 13.5449 2.36507 13.2068 2.15788C12.9085 1.97512 12.5834 1.84043 12.2433 1.75878ZM10.834 3.33335H8.16732C7.4535 3.33335 6.96826 3.33399 6.59318 3.36464C6.22784 3.39449 6.041 3.44859 5.91067 3.515C5.59706 3.67479 5.3421 3.92976 5.18231 4.24336C5.1159 4.37369 5.06179 4.56053 5.03195 4.92588C5.0013 5.30095 5.00065 5.7862 5.00065 6.50001V13.5C5.00065 14.2138 5.0013 14.6991 5.03195 15.0741C5.06179 15.4395 5.1159 15.6263 5.18231 15.7567C5.3421 16.0703 5.59706 16.3252 5.91067 16.485C6.041 16.5514 6.22784 16.6055 6.59318 16.6354C6.96826 16.666 7.4535 16.6667 8.16732 16.6667H11.834C12.5478 16.6667 13.033 16.666 13.4081 16.6354C13.7735 16.6055 13.9603 16.5514 14.0906 16.485C14.4042 16.3252 14.6592 16.0703 14.819 15.7567C14.8854 15.6263 14.9395 15.4395 14.9694 15.0741C15 14.6991 15.0007 14.2138 15.0007 13.5V7.50001H13.334C11.9533 7.50001 10.834 6.38072 10.834 5.00001V3.33335ZM14.634 5.83334C14.5338 5.71492 14.3739 5.55176 14.0732 5.25103L13.083 4.26084C12.7822 3.96011 12.6191 3.80018 12.5007 3.70003V5.00001C12.5007 5.46025 12.8737 5.83334 13.334 5.83334H14.634Z" fill="#0067DF"/>
<path d="M10.8333 9.16665C10.8333 8.70641 10.4602 8.33331 10 8.33331C9.53976 8.33331 9.16667 8.70641 9.16667 9.16665V12.1548L8.92259 11.9107C8.59715 11.5853 8.06951 11.5853 7.74408 11.9107C7.41864 12.2362 7.41864 12.7638 7.74408 13.0892L9.41074 14.7559C9.73618 15.0813 10.2638 15.0813 10.5893 14.7559L12.2559 13.0892C12.5814 12.7638 12.5814 12.2362 12.2559 11.9107C11.9305 11.5853 11.4028 11.5853 11.0774 11.9107L10.8333 12.1548V9.16665Z" fill="#0067DF"/>
</svg>
