<svg width="16" height="16" viewBox="0 0 16 16" fill="none" xmlns="http://www.w3.org/2000/svg">
<path fill-rule="evenodd" clip-rule="evenodd" d="M7.99967 2.66732C5.05416 2.66732 2.66634 5.05513 2.66634 8.00065C2.66634 10.9462 5.05416 13.334 7.99967 13.334C10.9452 13.334 13.333 10.9462 13.333 8.00065C13.333 5.05513 10.9452 2.66732 7.99967 2.66732ZM1.33301 8.00065C1.33301 4.31875 4.31778 1.33398 7.99967 1.33398C11.6816 1.33398 14.6663 4.31875 14.6663 8.00065C14.6663 11.6825 11.6816 14.6673 7.99967 14.6673C4.31778 14.6673 1.33301 11.6825 1.33301 8.00065Z" fill="#181B1F"/>
<path d="M7.99967 4.66602C7.63148 4.66602 7.33301 4.96449 7.33301 5.33268C7.33301 5.70087 7.63148 5.99935 7.99967 5.99935C8.36786 5.99935 8.66634 5.70087 8.66634 5.33268C8.66634 4.96449 8.36786 4.66602 7.99967 4.66602Z" fill="#181B1F"/>
<path d="M8.66634 7.99935C8.66634 7.63116 8.36786 7.33268 7.99967 7.33268C7.63148 7.33268 7.33301 7.63116 7.33301 7.99935V10.666C7.33301 11.0342 7.63148 11.3327 7.99967 11.3327C8.36786 11.3327 8.66634 11.0342 8.66634 10.666V7.99935Z" fill="#181B1F"/>
</svg>
