<svg width="25" height="24" viewBox="0 0 25 24" fill="none" xmlns="http://www.w3.org/2000/svg">
<path d="M17.7 13.9997C17.977 13.9997 18.1155 13.9997 18.2278 14.0612C18.3204 14.1119 18.4065 14.2072 18.4478 14.3044C18.4978 14.4222 18.4852 14.5476 18.46 14.7984C18.3296 16.0984 17.8822 17.3511 17.1518 18.4442C16.2727 19.7598 15.0233 20.7852 13.5615 21.3907C12.0997 21.9962 10.4911 22.1546 8.93928 21.846C7.38743 21.5373 5.96197 20.7754 4.84315 19.6565C3.72433 18.5377 2.9624 17.1123 2.65372 15.5604C2.34504 14.0086 2.50347 12.4 3.10897 10.9382C3.71447 9.47641 4.73985 8.22698 6.05544 7.34793C7.14856 6.61752 8.40125 6.17009 9.70131 6.03965C9.95207 6.01449 10.0774 6.00191 10.1953 6.0519C10.2925 6.09314 10.3878 6.17933 10.4385 6.27193C10.5 6.38419 10.5 6.52268 10.5 6.79968V13.1997C10.5 13.4797 10.5 13.6197 10.5545 13.7267C10.6024 13.8208 10.6789 13.8972 10.773 13.9452C10.88 13.9997 11.02 13.9997 11.3 13.9997H17.7Z" stroke="white" stroke-width="1.5" stroke-linecap="round" stroke-linejoin="round"/>
<path d="M14.5 2.79968C14.5 2.52268 14.5 2.38418 14.5615 2.27192C14.6122 2.17932 14.7075 2.09313 14.8047 2.05189C14.9225 2.0019 15.0479 2.01447 15.2987 2.03963C17.1271 2.22302 18.846 3.03198 20.1569 4.34283C21.4677 5.65367 22.2767 7.37258 22.4601 9.20098C22.4852 9.45175 22.4978 9.57714 22.4478 9.69497C22.4066 9.79217 22.3204 9.88744 22.2278 9.93818C22.1155 9.99968 21.977 9.99968 21.7 9.99968L15.3 9.99968C15.02 9.99968 14.88 9.99968 14.773 9.94519C14.6789 9.89725 14.6024 9.82076 14.5545 9.72668C14.5 9.61972 14.5 9.47971 14.5 9.19968V2.79968Z" stroke="white" stroke-width="1.5" stroke-linecap="round" stroke-linejoin="round"/>
</svg>
