<svg width="16" height="16" viewBox="0 0 16 16" fill="none" xmlns="http://www.w3.org/2000/svg">
<path fill-rule="evenodd" clip-rule="evenodd" d="M9.79344 1.40704C9.48498 1.33298 9.16512 1.33313 8.74179 1.33333L6.50515 1.33335C5.9685 1.33335 5.5256 1.33334 5.1648 1.36282C4.79007 1.39343 4.4456 1.45914 4.12204 1.624C3.62028 1.87967 3.21233 2.28761 2.95667 2.78938C2.79181 3.11294 2.7261 3.45741 2.69548 3.83214C2.666 4.19293 2.66601 4.63584 2.66602 5.17248V10.8276C2.66601 11.3642 2.666 11.8071 2.69548 12.1679C2.7261 12.5426 2.79181 12.8871 2.95667 13.2107C3.21233 13.7124 3.62028 14.1204 4.12204 14.376C4.4456 14.5409 4.79007 14.6066 5.1648 14.6372C5.52559 14.6667 5.96849 14.6667 6.50513 14.6667H9.49357C10.0302 14.6667 10.4731 14.6667 10.8339 14.6372C11.2086 14.6066 11.5531 14.5409 11.8767 14.376C12.3784 14.1204 12.7864 13.7124 13.042 13.2107C13.2069 12.8871 13.2726 12.5426 13.3032 12.1679C13.3327 11.8071 13.3327 11.3642 13.3327 10.8276L13.3327 5.92425C13.3329 5.50093 13.3331 5.18105 13.259 4.87259C13.1937 4.6005 13.0859 4.34038 12.9397 4.10179C12.774 3.83131 12.5477 3.60524 12.2482 3.30604L11.36 2.41783C11.0608 2.11835 10.8347 1.89207 10.5643 1.72631C10.3257 1.5801 10.0655 1.47236 9.79344 1.40704ZM8.66602 2.66669H6.53268C5.96163 2.66669 5.57343 2.66721 5.27337 2.69172C4.9811 2.7156 4.83163 2.75889 4.72736 2.81201C4.47648 2.93984 4.27251 3.14382 4.14467 3.3947C4.09155 3.49897 4.04826 3.64844 4.02438 3.94071C3.99987 4.24077 3.99935 4.62897 3.99935 5.20002V10.8C3.99935 11.3711 3.99987 11.7593 4.02438 12.0593C4.04826 12.3516 4.09155 12.5011 4.14467 12.6053C4.27251 12.8562 4.47648 13.0602 4.72736 13.188C4.83163 13.2412 4.9811 13.2844 5.27338 13.3083C5.57343 13.3328 5.96163 13.3334 6.53268 13.3334H9.46602C10.0371 13.3334 10.4253 13.3328 10.7253 13.3083C11.0176 13.2844 11.1671 13.2412 11.2713 13.188C11.5222 13.0602 11.7262 12.8562 11.854 12.6053C11.9072 12.5011 11.9504 12.3516 11.9743 12.0593C11.9988 11.7593 11.9993 11.3711 11.9993 10.8V6.00002H10.666C9.56145 6.00002 8.66602 5.10459 8.66602 4.00002V2.66669ZM11.706 4.66669C11.6259 4.57195 11.4979 4.44142 11.2574 4.20083L10.4652 3.40868C10.2246 3.1681 10.0941 3.04015 9.99935 2.96004V4.00002C9.99935 4.36821 10.2978 4.66669 10.666 4.66669H11.706Z" fill="#0067DF"/>
<path d="M8.66667 7.33335C8.66667 6.96516 8.36819 6.66669 8 6.66669C7.63181 6.66669 7.33333 6.96516 7.33333 7.33335V9.72388L7.13807 9.52862C6.87772 9.26827 6.45561 9.26827 6.19526 9.52862C5.93491 9.78897 5.93491 10.2111 6.19526 10.4714L7.5286 11.8048C7.78894 12.0651 8.21105 12.0651 8.4714 11.8048L9.80474 10.4714C10.0651 10.2111 10.0651 9.78897 9.80474 9.52862C9.54439 9.26827 9.12228 9.26827 8.86193 9.52862L8.66667 9.72388V7.33335Z" fill="#0067DF"/>
</svg>
