<svg width="16" height="17" viewBox="0 0 16 17" fill="none" xmlns="http://www.w3.org/2000/svg">
<path fill-rule="evenodd" clip-rule="evenodd" d="M9.79393 1.90697C9.48547 1.83292 9.16561 1.83307 8.74228 1.83327L6.50564 1.83329C5.96899 1.83329 5.52608 1.83328 5.16529 1.86276C4.79056 1.89337 4.44609 1.95908 4.12253 2.12394C3.62076 2.37961 3.21282 2.78755 2.95715 3.28932C2.79229 3.61288 2.72658 3.95735 2.69597 4.33208C2.66649 4.69287 2.6665 5.13577 2.6665 5.67242V11.3275C2.6665 11.8641 2.66649 12.3071 2.69597 12.6678C2.72658 13.0426 2.79229 13.387 2.95715 13.7106C3.21282 14.2124 3.62076 14.6203 4.12253 14.876C4.44609 15.0408 4.79056 15.1065 5.16529 15.1372C5.52608 15.1666 5.96898 15.1666 6.50562 15.1666H9.49405C10.0307 15.1666 10.4736 15.1666 10.8344 15.1372C11.2091 15.1065 11.5536 15.0408 11.8771 14.876C12.3789 14.6203 12.7869 14.2124 13.0425 13.7106C13.2074 13.387 13.2731 13.0426 13.3037 12.6678C13.3332 12.307 13.3332 11.8641 13.3332 11.3275L13.3332 6.42419C13.3334 6.00086 13.3335 5.68099 13.2595 5.37253C13.1942 5.10044 13.0864 4.84032 12.9402 4.60172C12.7745 4.33124 12.5482 4.10518 12.2487 3.80598L11.3605 2.91777C11.0613 2.61829 10.8352 2.392 10.5647 2.22625C10.3261 2.08004 10.066 1.9723 9.79393 1.90697ZM8.6665 3.16663H6.53317C5.96212 3.16663 5.57392 3.16715 5.27386 3.19166C4.98159 3.21554 4.83212 3.25883 4.72785 3.31195C4.47697 3.43978 4.27299 3.64376 4.14516 3.89464C4.09204 3.99891 4.04875 4.14838 4.02487 4.44065C4.00036 4.74071 3.99984 5.12891 3.99984 5.69996V11.3C3.99984 11.871 4.00036 12.2592 4.02487 12.5593C4.04875 12.8515 4.09204 13.001 4.14516 13.1053C4.27299 13.3562 4.47697 13.5601 4.72785 13.688C4.83212 13.7411 4.98159 13.7844 5.27386 13.8083C5.57392 13.8328 5.96212 13.8333 6.53317 13.8333H9.4665C10.0376 13.8333 10.4258 13.8328 10.7258 13.8083C11.0181 13.7844 11.1676 13.7411 11.2718 13.688C11.5227 13.5601 11.7267 13.3562 11.8545 13.1053C11.9076 13.001 11.9509 12.8515 11.9748 12.5593C11.9993 12.2592 11.9998 11.871 11.9998 11.3V6.49996H10.6665C9.56193 6.49996 8.6665 5.60453 8.6665 4.49996V3.16663ZM11.7065 5.16663C11.6264 5.07189 11.4984 4.94136 11.2578 4.70077L10.4657 3.90862C10.2251 3.66804 10.0946 3.54009 9.99984 3.45998V4.49996C9.99984 4.86815 10.2983 5.16663 10.6665 5.16663H11.7065Z" fill="#0067DF"/>
<path d="M8.66667 7.83341C8.66667 7.46522 8.36819 7.16675 8 7.16675C7.63181 7.16675 7.33333 7.46522 7.33333 7.83341V10.2239L7.13807 10.0287C6.87772 9.76833 6.45561 9.76833 6.19526 10.0287C5.93491 10.289 5.93491 10.7111 6.19526 10.9715L7.5286 12.3048C7.78894 12.5652 8.21105 12.5652 8.4714 12.3048L9.80474 10.9715C10.0651 10.7111 10.0651 10.289 9.80474 10.0287C9.54439 9.76833 9.12228 9.76833 8.86193 10.0287L8.66667 10.2239V7.83341Z" fill="#0067DF"/>
</svg>
