<svg width="18" height="19" viewBox="0 0 18 19" fill="none" xmlns="http://www.w3.org/2000/svg">
<path fill-rule="evenodd" clip-rule="evenodd" d="M9 5.75C9.41421 5.75 9.75 6.08579 9.75 6.5V8.75H12C12.4142 8.75 12.75 9.08579 12.75 9.5C12.75 9.91421 12.4142 10.25 12 10.25H9.75V12.5C9.75 12.9142 9.41421 13.25 9 13.25C8.58579 13.25 8.25 12.9142 8.25 12.5V10.25H6C5.58579 10.25 5.25 9.91421 5.25 9.5C5.25 9.08579 5.58579 8.75 6 8.75H8.25V6.5C8.25 6.08579 8.58579 5.75 9 5.75Z" fill="#0067DF"/>
<path fill-rule="evenodd" clip-rule="evenodd" d="M7.7679 2.75H10.2321C11.0449 2.74999 11.7006 2.74999 12.2315 2.79336C12.7781 2.83803 13.2582 2.93239 13.7025 3.15873C14.4081 3.51825 14.9817 4.09193 15.3413 4.79754C15.5676 5.24175 15.662 5.7219 15.7066 6.26853C15.75 6.79944 15.75 7.45505 15.75 8.26788V10.7321C15.75 11.545 15.75 12.2006 15.7066 12.7315C15.662 13.2781 15.5676 13.7582 15.3413 14.2025C14.9817 14.9081 14.4081 15.4817 13.7025 15.8413C13.2582 16.0676 12.7781 16.162 12.2315 16.2066C11.7006 16.25 11.045 16.25 10.2321 16.25H7.76788C6.95505 16.25 6.29944 16.25 5.76853 16.2066C5.2219 16.162 4.74175 16.0676 4.29754 15.8413C3.59193 15.4817 3.01825 14.9081 2.65873 14.2025C2.43239 13.7582 2.33803 13.2781 2.29336 12.7315C2.24999 12.2006 2.24999 11.5449 2.25 10.7321V8.2679C2.24999 7.45506 2.24999 6.79944 2.29336 6.26853C2.33803 5.7219 2.43239 5.24175 2.65873 4.79754C3.01825 4.09193 3.59193 3.51825 4.29754 3.15873C4.74175 2.93239 5.2219 2.83803 5.76853 2.79336C6.29944 2.74999 6.95506 2.74999 7.7679 2.75ZM5.89068 4.28838C5.4368 4.32547 5.17604 4.3946 4.97852 4.49524C4.55516 4.71095 4.21095 5.05516 3.99524 5.47852C3.8946 5.67604 3.82547 5.9368 3.78838 6.39068C3.75058 6.85331 3.75 7.44755 3.75 8.3V10.7C3.75 11.5525 3.75058 12.1467 3.78838 12.6093C3.82547 13.0632 3.8946 13.324 3.99524 13.5215C4.21095 13.9448 4.55516 14.2891 4.97852 14.5048C5.17604 14.6054 5.4368 14.6745 5.89068 14.7116C6.35331 14.7494 6.94755 14.75 7.8 14.75H10.2C11.0525 14.75 11.6467 14.7494 12.1093 14.7116C12.5632 14.6745 12.824 14.6054 13.0215 14.5048C13.4448 14.2891 13.7891 13.9448 14.0048 13.5215C14.1054 13.324 14.1745 13.0632 14.2116 12.6093C14.2494 12.1467 14.25 11.5525 14.25 10.7V8.3C14.25 7.44755 14.2494 6.85331 14.2116 6.39068C14.1745 5.9368 14.1054 5.67604 14.0048 5.47852C13.7891 5.05516 13.4448 4.71095 13.0215 4.49524C12.824 4.3946 12.5632 4.32547 12.1093 4.28838C11.6467 4.25058 11.0525 4.25 10.2 4.25H7.8C6.94755 4.25 6.35331 4.25058 5.89068 4.28838Z" fill="#0067DF"/>
</svg>
