<svg width="20" height="21" viewBox="0 0 20 21" fill="none" xmlns="http://www.w3.org/2000/svg">
<path fill-rule="evenodd" clip-rule="evenodd" d="M5.83335 7.1665V15.4998C5.83335 16.4203 6.57955 17.1665 7.50002 17.1665H12.5C13.4205 17.1665 14.1667 16.4203 14.1667 15.4998V7.1665H15.8334V15.4998C15.8334 17.3408 14.341 18.8332 12.5 18.8332H7.50002C5.65907 18.8332 4.16669 17.3408 4.16669 15.4998V7.1665H5.83335Z" fill="#4A5055"/>
<path d="M8.33333 9.6665C7.8731 9.6665 7.5 10.0396 7.5 10.4998V13.8332C7.5 14.2934 7.8731 14.6665 8.33333 14.6665C8.79357 14.6665 9.16667 14.2934 9.16667 13.8332V10.4998C9.16667 10.0396 8.79357 9.6665 8.33333 9.6665Z" fill="#4A5055"/>
<path d="M11.6667 9.6665C11.2064 9.6665 10.8333 10.0396 10.8333 10.4998V13.8332C10.8333 14.2934 11.2064 14.6665 11.6667 14.6665C12.1269 14.6665 12.5 14.2934 12.5 13.8332V10.4998C12.5 10.0396 12.1269 9.6665 11.6667 9.6665Z" fill="#4A5055"/>
<path fill-rule="evenodd" clip-rule="evenodd" d="M6.66665 5.49984V4.6665C6.66665 3.28579 7.78593 2.1665 9.16665 2.1665H10.8333C12.214 2.1665 13.3333 3.28579 13.3333 4.6665V5.49984H15.8333C16.2935 5.49984 16.6666 5.87293 16.6666 6.33317C16.6666 6.79341 16.2935 7.1665 15.8333 7.1665H4.16665C3.70641 7.1665 3.33331 6.79341 3.33331 6.33317C3.33331 5.87293 3.70641 5.49984 4.16665 5.49984H6.66665ZM8.33331 4.6665C8.33331 4.20627 8.70641 3.83317 9.16665 3.83317H10.8333C11.2935 3.83317 11.6666 4.20627 11.6666 4.6665V5.49984H8.33331V4.6665Z" fill="#4A5055"/>
</svg>
