<svg width="33" height="33" viewBox="0 0 33 33" fill="none" xmlns="http://www.w3.org/2000/svg">
<path d="M4.5 13.8333V11.1667C4.5 10.4594 4.78095 9.78115 5.28105 9.28105C5.78115 8.78095 6.45942 8.5 7.16667 8.5H9.83333M4.5 13.8333C6.27733 13.8333 9.83333 12.7667 9.83333 8.5M4.5 13.8333V19.1667M9.83333 8.5H23.1667M4.5 19.1667V21.8333C4.5 22.5406 4.78095 23.2189 5.28105 23.719C5.78115 24.219 6.45942 24.5 7.16667 24.5H9.83333M4.5 19.1667C6.27733 19.1667 9.83333 20.2333 9.83333 24.5M28.5 13.8333V11.1667C28.5 10.4594 28.219 9.78115 27.719 9.28105C27.2189 8.78095 26.5406 8.5 25.8333 8.5H23.1667M28.5 13.8333C26.7227 13.8333 23.1667 12.7667 23.1667 8.5M28.5 13.8333V19.1667M28.5 19.1667V21.8333C28.5 22.5406 28.219 23.2189 27.719 23.719C27.2189 24.219 26.5406 24.5 25.8333 24.5H23.1667M28.5 19.1667C26.7227 19.1667 23.1667 20.2333 23.1667 24.5M23.1667 24.5H9.83333" stroke="#181B1F" stroke-width="1.5" stroke-linecap="round" stroke-linejoin="round"/>
<path d="M16.4997 19.1663C17.9724 19.1663 19.1663 17.9724 19.1663 16.4997C19.1663 15.0269 17.9724 13.833 16.4997 13.833C15.0269 13.833 13.833 15.0269 13.833 16.4997C13.833 17.9724 15.0269 19.1663 16.4997 19.1663Z" stroke="#181B1F" stroke-width="1.5" stroke-linecap="round" stroke-linejoin="round"/>
</svg>
