<svg width="72" height="73" viewBox="0 0 72 73" fill="none" xmlns="http://www.w3.org/2000/svg">
<mask id="mask0_138_1008021" style="mask-type:alpha" maskUnits="userSpaceOnUse" x="0" y="0" width="72" height="73">
<circle cx="36" cy="36.5" r="36" fill="#D9D9D9"/>
</mask>
<g mask="url(#mask0_138_1008021)">
<path d="M36 72.5C55.8822 72.5 72 56.3822 72 36.5C72 16.6178 55.8822 0.5 36 0.5C16.1178 0.5 0 16.6178 0 36.5C0 56.3822 16.1178 72.5 36 72.5Z" fill="#CFB5F8"/>
<path d="M57.1204 20C58.1278 20 59.001 20.8 59.001 21.8667V77.1333C59.001 78.1333 58.195 79 57.1204 79H15.8816C14.8741 79 14.001 78.2 14.001 77.1333V21.8667C14.001 20.8667 14.8069 20 15.8816 20H57.1204V20Z" fill="#ECE4F8"/>
<g filter="url(#filter0_d_138_1008021)">
<path d="M55.0491 27.2686C55.0491 26.936 54.7903 26.6699 54.4668 26.6699H16.3587C16.0352 26.6699 15.7764 26.936 15.7764 27.2686V77.8894C15.7764 78.222 16.0352 78.4881 16.3587 78.4881H54.4021C54.7256 78.4881 54.9844 78.222 54.9844 77.8894V27.2686H55.0491Z" fill="white"/>
</g>
<rect x="26.1807" y="35.4092" width="19.6364" height="1.09091" rx="0.545455" fill="#E6EBF0"/>
<rect x="26.1807" y="33.123" width="19.6364" height="1.09091" rx="0.545455" fill="#E6EBF0"/>
<rect x="26.1807" y="47.4092" width="19.6364" height="1.09091" rx="0.545455" fill="#E6EBF0"/>
<rect x="26.1807" y="45.124" width="19.6364" height="1.09091" rx="0.545455" fill="#E6EBF0"/>
<rect x="26.1807" y="59.4092" width="19.6364" height="1.09091" rx="0.545455" fill="#E6EBF0"/>
<rect x="26.1807" y="57.124" width="19.6364" height="1.09091" rx="0.545455" fill="#E6EBF0"/>
<path d="M21.1458 36.5245C21.0588 36.5245 20.9718 36.4774 20.8848 36.383L19.6233 35.0622C19.4928 34.9207 19.4928 34.6376 19.6233 34.4961C19.7538 34.3546 20.0148 34.3546 20.1453 34.4961L21.1458 35.5811L23.1904 33.364C23.3209 33.2224 23.5819 33.2224 23.7124 33.364C23.8429 33.5055 23.8429 33.7885 23.7124 33.93L21.4068 36.4302C21.3198 36.4774 21.2328 36.5245 21.1458 36.5245Z" fill="#00A96C"/>
<path d="M21.6246 47.8865C22.4879 47.8865 23.1877 47.1712 23.1877 46.2889C23.1877 45.4066 22.4879 44.6914 21.6246 44.6914C20.7613 44.6914 20.0615 45.4066 20.0615 46.2889C20.0615 47.1712 20.7613 47.8865 21.6246 47.8865Z" fill="#FFB11A"/>
<path d="M21.7735 59.9343C22.6526 59.9343 23.3653 59.2178 23.3653 58.3339C23.3653 57.45 22.6526 56.7334 21.7735 56.7334C20.8943 56.7334 20.1816 57.45 20.1816 58.3339C20.1816 59.2178 20.8943 59.9343 21.7735 59.9343Z" fill="#FFB11A"/>
</g>
<defs>
<filter id="filter0_d_138_1008021" x="15.7764" y="25.6699" width="40.2725" height="52.8184" filterUnits="userSpaceOnUse" color-interpolation-filters="sRGB">
<feFlood flood-opacity="0" result="BackgroundImageFix"/>
<feColorMatrix in="SourceAlpha" type="matrix" values="0 0 0 0 0 0 0 0 0 0 0 0 0 0 0 0 0 0 127 0" result="hardAlpha"/>
<feOffset dx="1" dy="-1"/>
<feComposite in2="hardAlpha" operator="out"/>
<feColorMatrix type="matrix" values="0 0 0 0 0 0 0 0 0 0 0 0 0 0 0 0 0 0 0.1 0"/>
<feBlend mode="normal" in2="BackgroundImageFix" result="effect1_dropShadow_138_1008021"/>
<feBlend mode="normal" in="SourceGraphic" in2="effect1_dropShadow_138_1008021" result="shape"/>
</filter>
</defs>
</svg>
