<svg width="33" height="33" viewBox="0 0 33 33" fill="none" xmlns="http://www.w3.org/2000/svg">
<path d="M12.4997 12.4997H12.513M20.4997 20.4997H20.513M20.2783 12.721L12.945 20.0544M13.1663 12.4997C13.1663 12.8679 12.8679 13.1663 12.4997 13.1663C12.1315 13.1663 11.833 12.8679 11.833 12.4997C11.833 12.1315 12.1315 11.833 12.4997 11.833C12.8679 11.833 13.1663 12.1315 13.1663 12.4997ZM21.1663 20.4997C21.1663 20.8679 20.8679 21.1663 20.4997 21.1663C20.1315 21.1663 19.833 20.8679 19.833 20.4997C19.833 20.1315 20.1315 19.833 20.4997 19.833C20.8679 19.833 21.1663 20.1315 21.1663 20.4997Z" stroke="#181B1F" stroke-width="1.5" stroke-linecap="round" stroke-linejoin="round"/>
<path fill-rule="evenodd" clip-rule="evenodd" d="M14.8349 3.89442C15.7334 2.92452 17.2673 2.92452 18.1657 3.89442L19.3552 5.17845C19.4399 5.26998 19.5697 5.30476 19.6889 5.26788L21.361 4.75059C22.624 4.35985 23.9524 5.12681 24.2455 6.41598L24.6336 8.12271C24.6613 8.24437 24.7563 8.33937 24.8779 8.36704L26.5847 8.7551C27.8738 9.04822 28.6408 10.3766 28.2501 11.6396L27.7328 13.3117C27.6959 13.4309 27.7307 13.5607 27.8222 13.6455L29.1062 14.8349C30.0761 15.7334 30.0761 17.2673 29.1062 18.1657L27.8222 19.3552C27.7307 19.4399 27.6959 19.5697 27.7328 19.6889L28.2501 21.361C28.6408 22.624 27.8738 23.9524 26.5847 24.2455L24.8779 24.6336C24.7563 24.6613 24.6613 24.7563 24.6336 24.8779L24.2455 26.5847C23.9524 27.8738 22.624 28.6408 21.361 28.2501L19.6889 27.7328C19.5697 27.6959 19.4399 27.7307 19.3551 27.8222L18.1657 29.1062C17.2673 30.0761 15.7334 30.0761 14.8349 29.1062L13.6455 27.8222C13.5607 27.7307 13.4309 27.6959 13.3117 27.7328L11.6396 28.2501C10.3766 28.6408 9.04822 27.8738 8.7551 26.5847L8.36704 24.8779C8.33937 24.7563 8.24437 24.6613 8.12271 24.6336L6.41598 24.2455C5.1268 23.9524 4.35986 22.624 4.75059 21.361L5.26788 19.6889C5.30476 19.5697 5.26998 19.4399 5.17845 19.3551L3.89442 18.1657C2.92452 17.2673 2.92452 15.7334 3.89442 14.8349L5.17845 13.6455C5.26998 13.5607 5.30476 13.4309 5.26788 13.3117L4.75059 11.6396C4.35985 10.3766 5.12681 9.04822 6.41598 8.7551L8.12271 8.36704C8.24437 8.33937 8.33937 8.24437 8.36704 8.12271L8.7551 6.41598C9.04822 5.1268 10.3766 4.35986 11.6396 4.75059L13.3117 5.26788C13.4309 5.30476 13.5607 5.26998 13.6455 5.17845L14.8349 3.89442ZM16.7382 5.21672C16.6099 5.07817 16.3908 5.07817 16.2624 5.21672L15.073 6.50076C14.4795 7.14148 13.571 7.3849 12.7367 7.12677L11.0646 6.60948C10.8841 6.55366 10.6944 6.66323 10.6525 6.8474L10.2644 8.55412C10.0708 9.40575 9.40575 10.0708 8.55412 10.2644L6.8474 10.6525C6.66323 10.6944 6.55366 10.8841 6.60948 11.0646L7.12677 12.7367C7.3849 13.571 7.14148 14.4795 6.50076 15.073L5.21672 16.2624C5.07817 16.3908 5.07817 16.6099 5.21672 16.7382L6.50076 17.9277C7.14148 18.5212 7.3849 19.4296 7.12677 20.264L6.60948 21.9361C6.55366 22.1165 6.66323 22.3063 6.8474 22.3482L8.55412 22.7362C9.40575 22.9299 10.0708 23.5949 10.2644 24.4465L10.6525 26.1533C10.6944 26.3374 10.8841 26.447 11.0646 26.3912L12.7367 25.8739C13.571 25.6158 14.4795 25.8592 15.073 26.4999L16.2624 27.7839C16.3908 27.9225 16.6099 27.9225 16.7382 27.7839L17.9277 26.4999C18.5212 25.8592 19.4296 25.6158 20.264 25.8739L21.9361 26.3912C22.1165 26.447 22.3063 26.3374 22.3482 26.1533L22.7362 24.4465C22.9299 23.5949 23.5949 22.9299 24.4465 22.7362L26.1533 22.3482C26.3374 22.3063 26.447 22.1165 26.3912 21.9361L25.8739 20.264C25.6158 19.4296 25.8592 18.5212 26.4999 17.9277L27.7839 16.7382C27.9225 16.6099 27.9225 16.3908 27.7839 16.2624L26.4999 15.073C25.8592 14.4795 25.6158 13.571 25.8739 12.7367L26.3912 11.0646C26.447 10.8841 26.3374 10.6944 26.1533 10.6525L24.4465 10.2644C23.5949 10.0708 22.9299 9.40575 22.7362 8.55412L22.3482 6.8474C22.3063 6.66323 22.1165 6.55366 21.9361 6.60948L20.264 7.12677C19.4296 7.3849 18.5212 7.14148 17.9277 6.50076L16.7382 5.21672Z" fill="#181B1F"/>
</svg>
