<svg width="33" height="33" viewBox="0 0 33 33" fill="none" xmlns="http://www.w3.org/2000/svg">
<g clip-path="url(#clip0_138_1008084)">
<mask id="path-1-inside-1_138_1008084" fill="white">
<path fill-rule="evenodd" clip-rule="evenodd" d="M19.8974 4.0779H12.9415C12.7209 5.15561 12.1887 6.1448 11.4108 6.92266C10.633 7.70051 9.64377 8.23277 8.56606 8.45335C8.56563 8.77746 8.56563 9.10157 8.56606 9.42568C9.64377 9.64626 10.633 10.1785 11.4108 10.9564C12.1887 11.7342 12.7209 12.7234 12.9415 13.8011H19.8974C20.1179 12.7234 20.6502 11.7342 21.4281 10.9564C22.2059 10.1785 23.1951 9.64626 24.2728 9.42568C24.2731 9.10157 24.2731 8.77746 24.2728 8.45335C23.1951 8.23277 22.2059 7.70051 21.4281 6.92266C20.6502 6.1448 20.1179 5.15561 19.8974 4.0779ZM20.8024 1.83857C20.391 1.83408 19.9542 1.83408 19.489 1.83408H13.3499C12.8862 1.83408 12.4479 1.83408 12.038 1.83857C11.9563 1.83121 11.874 1.83271 11.7927 1.84306C11.1165 1.85502 10.5167 1.88344 9.99612 1.95375C9.05671 2.07941 8.20855 2.35764 7.52792 3.03827C6.8458 3.72039 6.56756 4.56855 6.44191 5.50647C6.3716 6.02853 6.34318 6.62838 6.33121 7.30452C6.32097 7.3854 6.31946 7.46714 6.32673 7.54835C6.32224 7.95971 6.32224 8.39801 6.32224 8.86173V9.0173C6.32224 9.48102 6.32224 9.91932 6.32673 10.3307C6.31948 10.4119 6.32098 10.4936 6.33121 10.5745C6.34318 11.2521 6.3716 11.8505 6.44191 12.3711C6.56756 13.3105 6.8458 14.1586 7.52792 14.8393C8.20855 15.5214 9.05671 15.7996 9.99612 15.9253C10.5167 15.9956 11.1165 16.024 11.7927 16.036C11.874 16.0465 11.9563 16.048 12.038 16.0405C12.4479 16.045 12.8862 16.045 13.3499 16.045H19.489C19.9527 16.045 20.391 16.045 20.8024 16.0405C20.8836 16.0479 20.9653 16.0464 21.0462 16.036C21.7238 16.024 22.3237 15.9956 22.8428 15.9253C23.7822 15.7996 24.6303 15.5214 25.311 14.8393C25.9931 14.1586 26.2713 13.3105 26.397 12.3711C26.4678 11.7748 26.5048 11.175 26.5077 10.5745C26.5178 10.4936 26.5193 10.4119 26.5121 10.3307C26.5166 9.91932 26.5166 9.48102 26.5166 9.0173V8.86173C26.5166 8.39801 26.5166 7.95971 26.5121 7.54835C26.5196 7.46715 26.5181 7.38539 26.5077 7.30452C26.5045 6.70406 26.4676 6.10426 26.397 5.50796C26.2713 4.56855 25.9931 3.72039 25.3124 3.03976C24.6303 2.35764 23.7822 2.07941 22.8442 1.95375C22.2475 1.88303 21.6472 1.84608 21.0462 1.84306C20.9653 1.83278 20.8836 1.83127 20.8024 1.83857ZM22.2444 4.14372C22.4138 4.59125 22.6763 4.99767 23.0147 5.33602C23.3531 5.67438 23.7595 5.93694 24.207 6.10632C24.1976 6.00637 24.1861 5.90662 24.1726 5.80714C24.0813 5.11604 23.9198 4.81986 23.7238 4.62539C23.5294 4.43093 23.2347 4.27087 22.5451 4.17663C22.4456 4.16364 22.3458 4.15267 22.2459 4.14372H22.2444ZM24.207 11.7727C23.7595 11.9421 23.3531 12.2047 23.0147 12.543C22.6763 12.8814 22.4138 13.2878 22.2444 13.7353C22.3491 13.7263 22.4493 13.7144 22.5436 13.7024C23.2347 13.6082 23.5309 13.4481 23.7253 13.2536C23.9198 13.0592 24.0813 12.763 24.1741 12.0719C24.1861 11.9776 24.198 11.8774 24.207 11.7727ZM10.5945 13.7353C10.4251 13.2878 10.1625 12.8814 9.82418 12.543C9.48582 12.2047 9.07941 11.9421 8.63188 11.7727C8.64235 11.8774 8.65282 11.9776 8.66628 12.0719C8.75903 12.763 8.91909 13.0592 9.11505 13.2536C9.30951 13.4481 9.6042 13.6082 10.2938 13.7024C10.3895 13.7144 10.4898 13.7263 10.5945 13.7353ZM8.63188 6.10632C9.07941 5.93694 9.48582 5.67438 9.82418 5.33602C10.1625 4.99767 10.4251 4.59125 10.5945 4.14372C10.4898 4.1527 10.3895 4.16466 10.2953 4.17813C9.6042 4.27087 9.30802 4.43093 9.11355 4.62689C8.91909 4.82136 8.75903 5.11604 8.66479 5.80564L8.63188 6.10632ZM16.4194 8.56554C16.3203 8.56554 16.2251 8.60495 16.155 8.67508C16.0849 8.74521 16.0455 8.84033 16.0455 8.93952C16.0455 9.0387 16.0849 9.13382 16.155 9.20395C16.2251 9.27409 16.3203 9.31349 16.4194 9.31349C16.5186 9.31349 16.6137 9.27409 16.6839 9.20395C16.754 9.13382 16.7934 9.0387 16.7934 8.93952C16.7934 8.84033 16.754 8.74521 16.6839 8.67508C16.6137 8.60495 16.5186 8.56554 16.4194 8.56554ZM13.8016 8.93952C13.8016 8.24523 14.0774 7.57939 14.5684 7.08846C15.0593 6.59753 15.7252 6.32172 16.4194 6.32172C17.1137 6.32172 17.7796 6.59753 18.2705 7.08846C18.7614 7.57939 19.0372 8.24523 19.0372 8.93952C19.0372 9.6338 18.7614 10.2996 18.2705 10.7906C17.7796 11.2815 17.1137 11.5573 16.4194 11.5573C15.7252 11.5573 15.0593 11.2815 14.5684 10.7906C14.0774 10.2996 13.8016 9.6338 13.8016 8.93952ZM11.4591 20.0808C14.2504 19.5408 17.2377 19.662 19.6565 21.104C19.9946 21.306 20.3147 21.5588 20.5914 21.8699C21.1539 22.5027 21.4441 23.2865 21.4576 24.0733C21.7433 23.8894 22.0305 23.6844 22.3207 23.4645L25.0252 21.4226C25.7024 20.9251 26.5207 20.6567 27.3611 20.6567C28.2014 20.6567 29.0197 20.9251 29.6969 21.4226C30.9474 22.365 31.4471 24.0599 30.551 25.4959C29.9153 26.5146 28.9564 27.9252 27.9826 28.8287C26.9953 29.7412 25.5937 30.5101 24.5331 31.0217C23.2436 31.644 21.8525 31.9881 20.4987 32.2064C17.7313 32.6552 14.8532 32.5864 12.1188 32.0225C10.7086 31.7323 9.27277 31.5854 7.83308 31.5842H4.45239C4.15484 31.5842 3.86948 31.466 3.65908 31.2556C3.44868 31.0452 3.33048 30.7598 3.33048 30.4623C3.33048 30.1647 3.44868 29.8793 3.65908 29.6689C3.86948 29.4585 4.15484 29.3403 4.45239 29.3403H7.83308C9.42171 29.3403 11.0268 29.5064 12.572 29.825C15.0644 30.3364 17.6288 30.3927 20.1412 29.991C21.3798 29.7906 22.5376 29.4929 23.5578 29.0008C24.5795 28.5071 25.7283 27.8579 26.4568 27.1833C27.1943 26.4997 28.0185 25.3164 28.6483 24.3082C28.8382 24.003 28.8113 23.5647 28.3461 23.2132C27.7926 22.7944 26.9295 22.7944 26.3775 23.2132L23.6745 25.2551C22.5944 26.0703 21.2661 26.9424 19.6191 27.2057C19.4466 27.2331 19.2735 27.257 19.1001 27.2775C18.0519 27.3984 16.994 27.4085 15.9437 27.3074C15.7945 27.2971 15.6487 27.257 15.5152 27.1896C15.3816 27.1221 15.2629 27.0286 15.166 26.9145C15.0691 26.8005 14.996 26.6682 14.9511 26.5254C14.9061 26.3827 14.8901 26.2324 14.9041 26.0835C14.918 25.9345 14.9617 25.7898 15.0324 25.6579C15.1032 25.526 15.1996 25.4096 15.3159 25.3156C15.4323 25.2215 15.5664 25.1517 15.7102 25.1102C15.8539 25.0688 16.0046 25.0565 16.1532 25.0741C16.983 25.1547 17.8188 25.1532 18.6483 25.0696L18.6932 25.0651C18.8327 24.9785 18.9513 24.862 19.0404 24.724C19.1295 24.586 19.1869 24.4299 19.2083 24.2671C19.2298 24.1042 19.2148 23.9386 19.1646 23.7823C19.1143 23.6259 19.0299 23.4826 18.9176 23.3628C18.7984 23.2316 18.6596 23.1196 18.5062 23.0307C16.7396 21.9761 14.3791 21.8011 11.8854 22.2828C9.44976 22.7728 7.14074 23.758 5.1016 25.1773C4.98138 25.2626 4.84554 25.3233 4.70184 25.3561C4.55815 25.3888 4.4094 25.393 4.26411 25.3682C4.11881 25.3435 3.97981 25.2904 3.85504 25.212C3.73027 25.1335 3.62216 25.0313 3.53691 24.911C3.45165 24.7908 3.39091 24.655 3.35815 24.5113C3.32539 24.3676 3.32126 24.2188 3.34598 24.0735C3.37071 23.9282 3.42381 23.7892 3.50226 23.6645C3.5807 23.5397 3.68295 23.4316 3.80318 23.3463C6.10331 21.7427 8.70964 20.631 11.4591 20.0808Z"/>
</mask>
<path fill-rule="evenodd" clip-rule="evenodd" d="M19.8974 4.0779H12.9415C12.7209 5.15561 12.1887 6.1448 11.4108 6.92266C10.633 7.70051 9.64377 8.23277 8.56606 8.45335C8.56563 8.77746 8.56563 9.10157 8.56606 9.42568C9.64377 9.64626 10.633 10.1785 11.4108 10.9564C12.1887 11.7342 12.7209 12.7234 12.9415 13.8011H19.8974C20.1179 12.7234 20.6502 11.7342 21.4281 10.9564C22.2059 10.1785 23.1951 9.64626 24.2728 9.42568C24.2731 9.10157 24.2731 8.77746 24.2728 8.45335C23.1951 8.23277 22.2059 7.70051 21.4281 6.92266C20.6502 6.1448 20.1179 5.15561 19.8974 4.0779ZM20.8024 1.83857C20.391 1.83408 19.9542 1.83408 19.489 1.83408H13.3499C12.8862 1.83408 12.4479 1.83408 12.038 1.83857C11.9563 1.83121 11.874 1.83271 11.7927 1.84306C11.1165 1.85502 10.5167 1.88344 9.99612 1.95375C9.05671 2.07941 8.20855 2.35764 7.52792 3.03827C6.8458 3.72039 6.56756 4.56855 6.44191 5.50647C6.3716 6.02853 6.34318 6.62838 6.33121 7.30452C6.32097 7.3854 6.31946 7.46714 6.32673 7.54835C6.32224 7.95971 6.32224 8.39801 6.32224 8.86173V9.0173C6.32224 9.48102 6.32224 9.91932 6.32673 10.3307C6.31948 10.4119 6.32098 10.4936 6.33121 10.5745C6.34318 11.2521 6.3716 11.8505 6.44191 12.3711C6.56756 13.3105 6.8458 14.1586 7.52792 14.8393C8.20855 15.5214 9.05671 15.7996 9.99612 15.9253C10.5167 15.9956 11.1165 16.024 11.7927 16.036C11.874 16.0465 11.9563 16.048 12.038 16.0405C12.4479 16.045 12.8862 16.045 13.3499 16.045H19.489C19.9527 16.045 20.391 16.045 20.8024 16.0405C20.8836 16.0479 20.9653 16.0464 21.0462 16.036C21.7238 16.024 22.3237 15.9956 22.8428 15.9253C23.7822 15.7996 24.6303 15.5214 25.311 14.8393C25.9931 14.1586 26.2713 13.3105 26.397 12.3711C26.4678 11.7748 26.5048 11.175 26.5077 10.5745C26.5178 10.4936 26.5193 10.4119 26.5121 10.3307C26.5166 9.91932 26.5166 9.48102 26.5166 9.0173V8.86173C26.5166 8.39801 26.5166 7.95971 26.5121 7.54835C26.5196 7.46715 26.5181 7.38539 26.5077 7.30452C26.5045 6.70406 26.4676 6.10426 26.397 5.50796C26.2713 4.56855 25.9931 3.72039 25.3124 3.03976C24.6303 2.35764 23.7822 2.07941 22.8442 1.95375C22.2475 1.88303 21.6472 1.84608 21.0462 1.84306C20.9653 1.83278 20.8836 1.83127 20.8024 1.83857ZM22.2444 4.14372C22.4138 4.59125 22.6763 4.99767 23.0147 5.33602C23.3531 5.67438 23.7595 5.93694 24.207 6.10632C24.1976 6.00637 24.1861 5.90662 24.1726 5.80714C24.0813 5.11604 23.9198 4.81986 23.7238 4.62539C23.5294 4.43093 23.2347 4.27087 22.5451 4.17663C22.4456 4.16364 22.3458 4.15267 22.2459 4.14372H22.2444ZM24.207 11.7727C23.7595 11.9421 23.3531 12.2047 23.0147 12.543C22.6763 12.8814 22.4138 13.2878 22.2444 13.7353C22.3491 13.7263 22.4493 13.7144 22.5436 13.7024C23.2347 13.6082 23.5309 13.4481 23.7253 13.2536C23.9198 13.0592 24.0813 12.763 24.1741 12.0719C24.1861 11.9776 24.198 11.8774 24.207 11.7727ZM10.5945 13.7353C10.4251 13.2878 10.1625 12.8814 9.82418 12.543C9.48582 12.2047 9.07941 11.9421 8.63188 11.7727C8.64235 11.8774 8.65282 11.9776 8.66628 12.0719C8.75903 12.763 8.91909 13.0592 9.11505 13.2536C9.30951 13.4481 9.6042 13.6082 10.2938 13.7024C10.3895 13.7144 10.4898 13.7263 10.5945 13.7353ZM8.63188 6.10632C9.07941 5.93694 9.48582 5.67438 9.82418 5.33602C10.1625 4.99767 10.4251 4.59125 10.5945 4.14372C10.4898 4.1527 10.3895 4.16466 10.2953 4.17813C9.6042 4.27087 9.30802 4.43093 9.11355 4.62689C8.91909 4.82136 8.75903 5.11604 8.66479 5.80564L8.63188 6.10632ZM16.4194 8.56554C16.3203 8.56554 16.2251 8.60495 16.155 8.67508C16.0849 8.74521 16.0455 8.84033 16.0455 8.93952C16.0455 9.0387 16.0849 9.13382 16.155 9.20395C16.2251 9.27409 16.3203 9.31349 16.4194 9.31349C16.5186 9.31349 16.6137 9.27409 16.6839 9.20395C16.754 9.13382 16.7934 9.0387 16.7934 8.93952C16.7934 8.84033 16.754 8.74521 16.6839 8.67508C16.6137 8.60495 16.5186 8.56554 16.4194 8.56554ZM13.8016 8.93952C13.8016 8.24523 14.0774 7.57939 14.5684 7.08846C15.0593 6.59753 15.7252 6.32172 16.4194 6.32172C17.1137 6.32172 17.7796 6.59753 18.2705 7.08846C18.7614 7.57939 19.0372 8.24523 19.0372 8.93952C19.0372 9.6338 18.7614 10.2996 18.2705 10.7906C17.7796 11.2815 17.1137 11.5573 16.4194 11.5573C15.7252 11.5573 15.0593 11.2815 14.5684 10.7906C14.0774 10.2996 13.8016 9.6338 13.8016 8.93952ZM11.4591 20.0808C14.2504 19.5408 17.2377 19.662 19.6565 21.104C19.9946 21.306 20.3147 21.5588 20.5914 21.8699C21.1539 22.5027 21.4441 23.2865 21.4576 24.0733C21.7433 23.8894 22.0305 23.6844 22.3207 23.4645L25.0252 21.4226C25.7024 20.9251 26.5207 20.6567 27.3611 20.6567C28.2014 20.6567 29.0197 20.9251 29.6969 21.4226C30.9474 22.365 31.4471 24.0599 30.551 25.4959C29.9153 26.5146 28.9564 27.9252 27.9826 28.8287C26.9953 29.7412 25.5937 30.5101 24.5331 31.0217C23.2436 31.644 21.8525 31.9881 20.4987 32.2064C17.7313 32.6552 14.8532 32.5864 12.1188 32.0225C10.7086 31.7323 9.27277 31.5854 7.83308 31.5842H4.45239C4.15484 31.5842 3.86948 31.466 3.65908 31.2556C3.44868 31.0452 3.33048 30.7598 3.33048 30.4623C3.33048 30.1647 3.44868 29.8793 3.65908 29.6689C3.86948 29.4585 4.15484 29.3403 4.45239 29.3403H7.83308C9.42171 29.3403 11.0268 29.5064 12.572 29.825C15.0644 30.3364 17.6288 30.3927 20.1412 29.991C21.3798 29.7906 22.5376 29.4929 23.5578 29.0008C24.5795 28.5071 25.7283 27.8579 26.4568 27.1833C27.1943 26.4997 28.0185 25.3164 28.6483 24.3082C28.8382 24.003 28.8113 23.5647 28.3461 23.2132C27.7926 22.7944 26.9295 22.7944 26.3775 23.2132L23.6745 25.2551C22.5944 26.0703 21.2661 26.9424 19.6191 27.2057C19.4466 27.2331 19.2735 27.257 19.1001 27.2775C18.0519 27.3984 16.994 27.4085 15.9437 27.3074C15.7945 27.2971 15.6487 27.257 15.5152 27.1896C15.3816 27.1221 15.2629 27.0286 15.166 26.9145C15.0691 26.8005 14.996 26.6682 14.9511 26.5254C14.9061 26.3827 14.8901 26.2324 14.9041 26.0835C14.918 25.9345 14.9617 25.7898 15.0324 25.6579C15.1032 25.526 15.1996 25.4096 15.3159 25.3156C15.4323 25.2215 15.5664 25.1517 15.7102 25.1102C15.8539 25.0688 16.0046 25.0565 16.1532 25.0741C16.983 25.1547 17.8188 25.1532 18.6483 25.0696L18.6932 25.0651C18.8327 24.9785 18.9513 24.862 19.0404 24.724C19.1295 24.586 19.1869 24.4299 19.2083 24.2671C19.2298 24.1042 19.2148 23.9386 19.1646 23.7823C19.1143 23.6259 19.0299 23.4826 18.9176 23.3628C18.7984 23.2316 18.6596 23.1196 18.5062 23.0307C16.7396 21.9761 14.3791 21.8011 11.8854 22.2828C9.44976 22.7728 7.14074 23.758 5.1016 25.1773C4.98138 25.2626 4.84554 25.3233 4.70184 25.3561C4.55815 25.3888 4.4094 25.393 4.26411 25.3682C4.11881 25.3435 3.97981 25.2904 3.85504 25.212C3.73027 25.1335 3.62216 25.0313 3.53691 24.911C3.45165 24.7908 3.39091 24.655 3.35815 24.5113C3.32539 24.3676 3.32126 24.2188 3.34598 24.0735C3.37071 23.9282 3.42381 23.7892 3.50226 23.6645C3.5807 23.5397 3.68295 23.4316 3.80318 23.3463C6.10331 21.7427 8.70964 20.631 11.4591 20.0808Z" fill="#181B1F" stroke="#FFC2C2" stroke-width="0.4" mask="url(#path-1-inside-1_138_1008084)"/>
</g>
<defs>
<clipPath id="clip0_138_1008084">
<rect width="32" height="32" fill="white" transform="translate(0.5 0.5)"/>
</clipPath>
</defs>
</svg>
