<svg width="24" height="24" viewBox="0 0 24 24" fill="none" xmlns="http://www.w3.org/2000/svg">
<path d="M11.0391 18.7728C11.0391 17.3328 12.4641 17.4691 14.2221 17.4691C15.98 17.4691 17.4051 17.3328 17.4051 18.7728M10.2222 5.45455H13.7778M16.4444 13.2273C16.4444 14.3569 15.4495 15.2727 14.2222 15.2727C12.9949 15.2727 12 14.3569 12 13.2273C12 12.0976 12.9949 11.1818 14.2222 11.1818C15.4495 11.1818 16.4444 12.0976 16.4444 13.2273ZM6.66667 21H17.3333C18.8061 21 20 19.9011 20 18.5455V5.45455C20 4.09894 18.8061 3 17.3333 3H6.66667C5.19391 3 4 4.09894 4 5.45455V18.5455C4 19.9011 5.19391 21 6.66667 21Z" stroke="#272727" stroke-width="1.5" stroke-linecap="round"/>
</svg>
