<svg width="20" height="20" viewBox="0 0 20 20" fill="none" xmlns="http://www.w3.org/2000/svg">
<path fill-rule="evenodd" clip-rule="evenodd" d="M12.2425 1.75915C11.857 1.66658 11.4571 1.66677 10.928 1.66702L8.13217 1.66704C7.46136 1.66703 6.90773 1.66702 6.45673 1.70387C5.98832 1.74214 5.55773 1.82428 5.15328 2.03036C4.52608 2.34993 4.01614 2.85987 3.69656 3.48708C3.49049 3.89152 3.40835 4.32211 3.37008 4.79052C3.33323 5.24152 3.33324 5.79515 3.33325 6.46595V13.5348C3.33324 14.2056 3.33323 14.7592 3.37008 15.2102C3.40835 15.6786 3.49049 16.1092 3.69656 16.5137C4.01614 17.1409 4.52608 17.6508 5.15328 17.9704C5.55773 18.1765 5.98832 18.2586 6.45673 18.2969C6.90772 18.3337 7.46135 18.3337 8.13215 18.3337H11.8677C12.5385 18.3337 13.0921 18.3337 13.5431 18.2969C14.0115 18.2586 14.4421 18.1765 14.8466 17.9704C15.4738 17.6508 15.9837 17.1409 16.3033 16.5137C16.5094 16.1092 16.5915 15.6786 16.6298 15.2102C16.6666 14.7592 16.6666 14.2056 16.6666 13.5348L16.6666 7.40566C16.6669 6.87651 16.6671 6.47667 16.5745 6.09109C16.4928 5.75097 16.3581 5.42582 16.1754 5.12758C15.9682 4.78948 15.6853 4.5069 15.311 4.1329L14.2007 3.02264C13.8267 2.64829 13.5441 2.36543 13.206 2.15824C12.9078 1.97548 12.5827 1.8408 12.2425 1.75915ZM10.8333 3.33371H8.16659C7.45277 3.33371 6.96753 3.33436 6.59245 3.365C6.22711 3.39485 6.04027 3.44896 5.90994 3.51537C5.59633 3.67516 5.34136 3.93012 5.18158 4.24373C5.11517 4.37406 5.06106 4.5609 5.03121 4.92624C5.00057 5.30132 4.99992 5.78656 4.99992 6.50038V13.5004C4.99992 14.2142 5.00057 14.6994 5.03121 15.0745C5.06106 15.4399 5.11517 15.6267 5.18158 15.757C5.34136 16.0706 5.59633 16.3256 5.90994 16.4854C6.04027 16.5518 6.22711 16.6059 6.59245 16.6358C6.96753 16.6664 7.45277 16.667 8.16659 16.667H11.8333C12.5471 16.667 13.0323 16.6664 13.4074 16.6358C13.7727 16.6059 13.9596 16.5518 14.0899 16.4854C14.4035 16.3256 14.6585 16.0706 14.8183 15.757C14.8847 15.6267 14.9388 15.4399 14.9686 15.0745C14.9993 14.6994 14.9999 14.2142 14.9999 13.5004V7.50038H13.3333C11.9525 7.50038 10.8333 6.38109 10.8333 5.00038V3.33371ZM14.6332 5.83371C14.5331 5.71529 14.3732 5.55213 14.0724 5.2514L13.0822 4.26121C12.7815 3.96047 12.6183 3.80054 12.4999 3.7004V5.00038C12.4999 5.46061 12.873 5.83371 13.3333 5.83371H14.6332Z" fill="#0067DF"/>
<path d="M10.8333 9.16634C10.8333 8.7061 10.4602 8.33301 10 8.33301C9.53976 8.33301 9.16667 8.7061 9.16667 9.16634V12.1545L8.92259 11.9104C8.59715 11.585 8.06951 11.585 7.74408 11.9104C7.41864 12.2359 7.41864 12.7635 7.74408 13.0889L9.41074 14.7556C9.73618 15.081 10.2638 15.081 10.5893 14.7556L12.2559 13.0889C12.5814 12.7635 12.5814 12.2359 12.2559 11.9104C11.9305 11.585 11.4028 11.585 11.0774 11.9104L10.8333 12.1545V9.16634Z" fill="#0067DF"/>
</svg>
