<svg width="18" height="19" viewBox="0 0 18 19" fill="none" xmlns="http://www.w3.org/2000/svg">
<path d="M13.5 5.75V4.4C13.5 3.55992 13.5 3.13988 13.3365 2.81901C13.1927 2.53677 12.9632 2.3073 12.681 2.16349C12.3601 2 11.9401 2 11.1 2H6.9C6.05992 2 5.63988 2 5.31901 2.16349C5.03677 2.3073 4.8073 2.53677 4.66349 2.81901C4.5 3.13988 4.5 3.55992 4.5 4.4V5.75M4.5 14C3.80252 14 3.45378 14 3.16766 13.9233C2.3912 13.7153 1.78472 13.1088 1.57667 12.3323C1.5 12.0462 1.5 11.6975 1.5 11V9.35C1.5 8.08988 1.5 7.45982 1.74524 6.97852C1.96095 6.55516 2.30516 6.21095 2.72852 5.99524C3.20982 5.75 3.83988 5.75 5.1 5.75H12.9C14.1601 5.75 14.7902 5.75 15.2715 5.99524C15.6948 6.21095 16.039 6.55516 16.2548 6.97852C16.5 7.45982 16.5 8.08988 16.5 9.35V11C16.5 11.6975 16.5 12.0462 16.4233 12.3323C16.2153 13.1088 15.6088 13.7153 14.8323 13.9233C14.5462 14 14.1975 14 13.5 14M11.25 8.375H13.5M6.9 17H11.1C11.9401 17 12.3601 17 12.681 16.8365C12.9632 16.6927 13.1927 16.4632 13.3365 16.181C13.5 15.8601 13.5 15.4401 13.5 14.6V13.4C13.5 12.5599 13.5 12.1399 13.3365 11.819C13.1927 11.5368 12.9632 11.3073 12.681 11.1635C12.3601 11 11.9401 11 11.1 11H6.9C6.05992 11 5.63988 11 5.31901 11.1635C5.03677 11.3073 4.8073 11.5368 4.66349 11.819C4.5 12.1399 4.5 12.5599 4.5 13.4V14.6C4.5 15.4401 4.5 15.8601 4.66349 16.181C4.8073 16.4632 5.03677 16.6927 5.31901 16.8365C5.63988 17 6.05992 17 6.9 17Z" stroke="#99C2F2" stroke-width="1.5" stroke-linecap="round" stroke-linejoin="round"/>
</svg>
