<svg width="33" height="32" viewBox="0 0 33 32" fill="none" xmlns="http://www.w3.org/2000/svg">
<path d="M12.6667 12.0007H12.68M20.6667 20.0007H20.68M20.4453 12.222L13.112 19.5553M13.3333 12.0007C13.3333 12.3688 13.0349 12.6673 12.6667 12.6673C12.2985 12.6673 12 12.3688 12 12.0007C12 11.6325 12.2985 11.334 12.6667 11.334C13.0349 11.334 13.3333 11.6325 13.3333 12.0007ZM21.3333 20.0007C21.3333 20.3688 21.0349 20.6673 20.6667 20.6673C20.2985 20.6673 20 20.3688 20 20.0007C20 19.6325 20.2985 19.334 20.6667 19.334C21.0349 19.334 21.3333 19.6325 21.3333 20.0007Z" stroke="#181B1F" stroke-width="1.5" stroke-linecap="round" stroke-linejoin="round"/>
<path fill-rule="evenodd" clip-rule="evenodd" d="M15 3.39344C15.8984 2.42354 17.4323 2.42354 18.3308 3.39344L19.5202 4.67748C19.605 4.76901 19.7348 4.80378 19.8539 4.76691L21.526 4.24961C22.7891 3.85888 24.1175 4.62583 24.4106 5.91501L24.7986 7.62173C24.8263 7.74339 24.9213 7.8384 25.043 7.86606L26.7497 8.25412C28.0389 8.54725 28.8058 9.87564 28.4151 11.1387L27.8978 12.8108C27.8609 12.93 27.8957 13.0597 27.9872 13.1445L29.2713 14.334C30.2412 15.2324 30.2412 16.7663 29.2713 17.6647L27.9872 18.8542C27.8957 18.939 27.8609 19.0687 27.8978 19.1879L28.4151 20.86C28.8058 22.1231 28.0389 23.4515 26.7497 23.7446L25.043 24.1326C24.9213 24.1603 24.8263 24.2553 24.7986 24.377L24.4106 26.0837C24.1175 27.3729 22.7891 28.1398 21.526 27.7491L19.8539 27.2318C19.7348 27.1949 19.605 27.2297 19.5202 27.3212L18.3308 28.6053C17.4323 29.5752 15.8984 29.5752 15 28.6053L13.8105 27.3212C13.7258 27.2297 13.596 27.1949 13.4768 27.2318L11.8047 27.7491C10.5417 28.1398 9.21326 27.3729 8.92014 26.0837L8.53208 24.377C8.50441 24.2553 8.40941 24.1603 8.28775 24.1326L6.58102 23.7446C5.29184 23.4515 4.52489 22.1231 4.91563 20.86L5.43292 19.1879C5.4698 19.0687 5.43502 18.939 5.34349 18.8542L4.05945 17.6647C3.08956 16.7663 3.08956 15.2324 4.05946 14.334L5.34349 13.1445C5.43502 13.0597 5.4698 12.93 5.43292 12.8108L4.91563 11.1387C4.52489 9.87564 5.29185 8.54725 6.58102 8.25412L8.28775 7.86606C8.40941 7.8384 8.50441 7.74339 8.53208 7.62173L8.92014 5.91501C9.21326 4.62583 10.5417 3.85888 11.8047 4.24962L13.4768 4.76691C13.596 4.80378 13.7258 4.76901 13.8105 4.67748L15 3.39344ZM16.9033 4.71575C16.7749 4.57719 16.5558 4.57719 16.4275 4.71575L15.238 5.99978C14.6445 6.6405 13.7361 6.88392 12.9017 6.6258L11.2296 6.10851C11.0492 6.05269 10.8594 6.16225 10.8175 6.34642L10.4295 8.05314C10.2358 8.90478 9.57079 9.56981 8.71916 9.76345L7.01244 10.1515C6.82827 10.1934 6.7187 10.3832 6.77452 10.5636L7.29181 12.2357C7.54993 13.07 7.30652 13.9785 6.6658 14.572L5.38176 15.7614C5.24321 15.8898 5.24321 16.1089 5.38176 16.2373L6.6658 17.4267C7.30652 18.0202 7.54993 18.9287 7.29181 19.763L6.77452 21.4351C6.7187 21.6155 6.82827 21.8053 7.01243 21.8472L8.71916 22.2352C9.57079 22.4289 10.2358 23.0939 10.4295 23.9456L10.8175 25.6523C10.8594 25.8364 11.0492 25.946 11.2296 25.8902L12.9017 25.3729C13.7361 25.1148 14.6445 25.3582 15.238 25.9989L16.4275 27.2829C16.5558 27.4215 16.7749 27.4215 16.9033 27.2829L18.0927 25.9989C18.6862 25.3582 19.5947 25.1148 20.429 25.3729L22.1011 25.8902C22.2816 25.946 22.4713 25.8364 22.5132 25.6523L22.9013 23.9456C23.0949 23.0939 23.7599 22.4289 24.6116 22.2352L26.3183 21.8472C26.5025 21.8053 26.612 21.6155 26.5562 21.4351L26.0389 19.763C25.7808 18.9287 26.0242 18.0202 26.6649 17.4267L27.949 16.2373C28.0875 16.1089 28.0875 15.8898 27.949 15.7614L26.6649 14.572C26.0242 13.9785 25.7808 13.07 26.0389 12.2357L26.5562 10.5636C26.612 10.3832 26.5025 10.1934 26.3183 10.1515L24.6116 9.76345C23.7599 9.56981 23.0949 8.90478 22.9013 8.05314L22.5132 6.34642C22.4713 6.16225 22.2816 6.05269 22.1011 6.10851L20.429 6.6258C19.5947 6.88392 18.6862 6.6405 18.0927 5.99978L16.9033 4.71575Z" fill="#181B1F"/>
</svg>
