<svg width="33" height="32" viewBox="0 0 33 32" fill="none" xmlns="http://www.w3.org/2000/svg">
<mask id="path-1-inside-1_256_17199" fill="white">
<path fill-rule="evenodd" clip-rule="evenodd" d="M19.7313 3.5779H12.7755C12.5549 4.65561 12.0227 5.6448 11.2448 6.42266C10.4669 7.20051 9.47776 7.73277 8.40005 7.95335C8.39961 8.27746 8.39961 8.60157 8.40005 8.92568C9.47776 9.14626 10.4669 9.67852 11.2448 10.4564C12.0227 11.2342 12.5549 12.2234 12.7755 13.3011H19.7313C19.9519 12.2234 20.4842 11.2342 21.262 10.4564C22.0399 9.67852 23.0291 9.14626 24.1068 8.92568C24.1071 8.60157 24.1071 8.27746 24.1068 7.95335C23.0291 7.73277 22.0399 7.20051 21.262 6.42266C20.4842 5.6448 19.9519 4.65561 19.7313 3.5779ZM20.6364 1.33857C20.225 1.33408 19.7882 1.33408 19.323 1.33408H13.1839C12.7201 1.33408 12.2819 1.33408 11.872 1.33857C11.7903 1.33121 11.708 1.33271 11.6267 1.34306C10.9505 1.35502 10.3507 1.38344 9.83011 1.45375C8.89069 1.57941 8.04253 1.85764 7.3619 2.53827C6.67978 3.22039 6.40155 4.06855 6.27589 5.00647C6.20559 5.52853 6.17717 6.12838 6.1652 6.80452C6.15495 6.8854 6.15345 6.96714 6.16071 7.04835C6.15622 7.45971 6.15622 7.89801 6.15622 8.36173V8.5173C6.15622 8.98102 6.15622 9.41932 6.16071 9.83068C6.15346 9.91189 6.15497 9.99363 6.1652 10.0745C6.17717 10.7521 6.20559 11.3505 6.27589 11.8711C6.40155 12.8105 6.67978 13.6586 7.3619 14.3393C8.04253 15.0214 8.89069 15.2996 9.83011 15.4253C10.3507 15.4956 10.9505 15.524 11.6267 15.536C11.708 15.5465 11.7903 15.548 11.872 15.5405C12.2819 15.545 12.7201 15.545 13.1839 15.545H19.323C19.7867 15.545 20.225 15.545 20.6364 15.5405C20.7175 15.5479 20.7993 15.5464 20.8802 15.536C21.5578 15.524 22.1577 15.4956 22.6767 15.4253C23.6161 15.2996 24.4643 15.0214 25.1449 14.3393C25.8271 13.6586 26.1053 12.8105 26.2309 11.8711C26.3018 11.2748 26.3388 10.675 26.3416 10.0745C26.3518 9.99363 26.3533 9.91189 26.3461 9.83068C26.3506 9.41932 26.3506 8.98102 26.3506 8.5173V8.36173C26.3506 7.89801 26.3506 7.45971 26.3461 7.04835C26.3535 6.96715 26.352 6.88539 26.3416 6.80452C26.3385 6.20406 26.3016 5.60426 26.2309 5.00796C26.1053 4.06855 25.8271 3.22039 25.1464 2.53976C24.4643 1.85764 23.6161 1.57941 22.6782 1.45375C22.0814 1.38303 21.4811 1.34608 20.8802 1.34306C20.7993 1.33278 20.7176 1.33127 20.6364 1.33857ZM22.0784 3.64372C22.2478 4.09125 22.5103 4.49767 22.8487 4.83602C23.187 5.17438 23.5934 5.43694 24.041 5.60632C24.0316 5.50637 24.0201 5.40662 24.0066 5.30714C23.9153 4.61604 23.7538 4.31986 23.5578 4.12539C23.3633 3.93093 23.0687 3.77087 22.3791 3.67663C22.2796 3.66364 22.1798 3.65267 22.0799 3.64372H22.0784ZM24.041 11.2727C23.5934 11.4421 23.187 11.7047 22.8487 12.043C22.5103 12.3814 22.2478 12.7878 22.0784 13.2353C22.1831 13.2263 22.2833 13.2144 22.3776 13.2024C23.0687 13.1082 23.3648 12.9481 23.5593 12.7536C23.7538 12.5592 23.9153 12.263 24.0081 11.5719C24.02 11.4776 24.032 11.3774 24.041 11.2727ZM10.4285 13.2353C10.2591 12.7878 9.99652 12.3814 9.65816 12.043C9.31981 11.7047 8.91339 11.4421 8.46586 11.2727C8.47634 11.3774 8.48681 11.4776 8.50027 11.5719C8.59301 12.263 8.75307 12.5592 8.94903 12.7536C9.1435 12.9481 9.43819 13.1082 10.1278 13.2024C10.2235 13.2144 10.3237 13.2263 10.4285 13.2353ZM8.46586 5.60632C8.91339 5.43694 9.31981 5.17438 9.65816 4.83602C9.99652 4.49767 10.2591 4.09125 10.4285 3.64372C10.3237 3.6527 10.2235 3.66466 10.1293 3.67813C9.43819 3.77087 9.142 3.93093 8.94754 4.12689C8.75307 4.32136 8.59301 4.61604 8.49877 5.30564L8.46586 5.60632ZM16.2534 8.06554C16.1542 8.06554 16.0591 8.10495 15.989 8.17508C15.9189 8.24521 15.8795 8.34033 15.8795 8.43952C15.8795 8.5387 15.9189 8.63382 15.989 8.70395C16.0591 8.77409 16.1542 8.81349 16.2534 8.81349C16.3526 8.81349 16.4477 8.77409 16.5179 8.70395C16.588 8.63382 16.6274 8.5387 16.6274 8.43952C16.6274 8.34033 16.588 8.24521 16.5179 8.17508C16.4477 8.10495 16.3526 8.06554 16.2534 8.06554ZM13.6356 8.43952C13.6356 7.74523 13.9114 7.07939 14.4024 6.58846C14.8933 6.09753 15.5591 5.82172 16.2534 5.82172C16.9477 5.82172 17.6135 6.09753 18.1045 6.58846C18.5954 7.07939 18.8712 7.74523 18.8712 8.43952C18.8712 9.1338 18.5954 9.79964 18.1045 10.2906C17.6135 10.7815 16.9477 11.0573 16.2534 11.0573C15.5591 11.0573 14.8933 10.7815 14.4024 10.2906C13.9114 9.79964 13.6356 9.1338 13.6356 8.43952ZM11.2931 19.5808C14.0844 19.0408 17.0717 19.162 19.4905 20.604C19.8286 20.806 20.1487 21.0588 20.4254 21.3699C20.9879 22.0027 21.2781 22.7865 21.2915 23.5733C21.5773 23.3894 21.8645 23.1844 22.1547 22.9645L24.8592 20.9226C25.5364 20.4251 26.3547 20.1567 27.195 20.1567C28.0354 20.1567 28.8537 20.4251 29.5309 20.9226C30.7814 21.865 31.281 23.5599 30.385 24.9959C29.7493 26.0146 28.7904 27.4252 27.8166 28.3287C26.8293 29.2412 25.4277 30.0101 24.3671 30.5217C23.0776 31.144 21.6865 31.4881 20.3327 31.7064C17.5653 32.1552 14.6872 32.0864 11.9528 31.5225C10.5426 31.2323 9.10675 31.0854 7.66706 31.0842H4.28637C3.98882 31.0842 3.70346 30.966 3.49306 30.7556C3.28266 30.5452 3.16446 30.2598 3.16446 29.9623C3.16446 29.6647 3.28266 29.3793 3.49306 29.1689C3.70346 28.9585 3.98882 28.8403 4.28637 28.8403H7.66706C9.25569 28.8403 10.8608 29.0064 12.406 29.325C14.8984 29.8364 17.4628 29.8927 19.9752 29.491C21.2138 29.2906 22.3716 28.9929 23.3918 28.5008C24.4135 28.0071 25.5623 27.3579 26.2908 26.6833C27.0283 25.9997 27.8525 24.8164 28.4822 23.8082C28.6722 23.503 28.6453 23.0647 28.1801 22.7132C27.6266 22.2944 26.7635 22.2944 26.2115 22.7132L23.5084 24.7551C22.4284 25.5703 21.1001 26.4424 19.4531 26.7057C19.2806 26.7331 19.1075 26.757 18.934 26.7775C17.8859 26.8984 16.828 26.9085 15.7777 26.8074C15.6284 26.7971 15.4827 26.757 15.3492 26.6896C15.2156 26.6221 15.0969 26.5286 15 26.4145C14.9031 26.3005 14.83 26.1682 14.785 26.0254C14.7401 25.8827 14.7241 25.7324 14.7381 25.5835C14.752 25.4345 14.7957 25.2898 14.8664 25.1579C14.9371 25.026 15.0335 24.9096 15.1499 24.8156C15.2663 24.7215 15.4004 24.6517 15.5441 24.6102C15.6879 24.5688 15.8385 24.5565 15.9872 24.5741C16.817 24.6547 17.6527 24.6532 18.4823 24.5696L18.5272 24.5651C18.6667 24.4785 18.7853 24.362 18.8744 24.224C18.9635 24.086 19.0208 23.9299 19.0423 23.7671C19.0638 23.6042 19.0488 23.4386 18.9985 23.2823C18.9483 23.1259 18.8639 22.9826 18.7515 22.8628C18.6324 22.7316 18.4936 22.6196 18.3402 22.5307C16.5735 21.4761 14.213 21.3011 11.7194 21.7828C9.28374 22.2728 6.97473 23.258 4.93558 24.6773C4.81536 24.7626 4.67952 24.8233 4.53583 24.8561C4.39213 24.8888 4.24339 24.893 4.09809 24.8682C3.9528 24.8435 3.8138 24.7904 3.68902 24.712C3.56425 24.6335 3.45615 24.5313 3.37089 24.411C3.28564 24.2908 3.2249 24.155 3.19214 24.0113C3.15938 23.8676 3.15524 23.7188 3.17997 23.5735C3.20469 23.4282 3.25779 23.2892 3.33624 23.1645C3.41468 23.0397 3.51694 22.9316 3.63716 22.8463C5.9373 21.2427 8.54362 20.131 11.2931 19.5808Z"/>
</mask>
<path fill-rule="evenodd" clip-rule="evenodd" d="M19.7313 3.5779H12.7755C12.5549 4.65561 12.0227 5.6448 11.2448 6.42266C10.4669 7.20051 9.47776 7.73277 8.40005 7.95335C8.39961 8.27746 8.39961 8.60157 8.40005 8.92568C9.47776 9.14626 10.4669 9.67852 11.2448 10.4564C12.0227 11.2342 12.5549 12.2234 12.7755 13.3011H19.7313C19.9519 12.2234 20.4842 11.2342 21.262 10.4564C22.0399 9.67852 23.0291 9.14626 24.1068 8.92568C24.1071 8.60157 24.1071 8.27746 24.1068 7.95335C23.0291 7.73277 22.0399 7.20051 21.262 6.42266C20.4842 5.6448 19.9519 4.65561 19.7313 3.5779ZM20.6364 1.33857C20.225 1.33408 19.7882 1.33408 19.323 1.33408H13.1839C12.7201 1.33408 12.2819 1.33408 11.872 1.33857C11.7903 1.33121 11.708 1.33271 11.6267 1.34306C10.9505 1.35502 10.3507 1.38344 9.83011 1.45375C8.89069 1.57941 8.04253 1.85764 7.3619 2.53827C6.67978 3.22039 6.40155 4.06855 6.27589 5.00647C6.20559 5.52853 6.17717 6.12838 6.1652 6.80452C6.15495 6.8854 6.15345 6.96714 6.16071 7.04835C6.15622 7.45971 6.15622 7.89801 6.15622 8.36173V8.5173C6.15622 8.98102 6.15622 9.41932 6.16071 9.83068C6.15346 9.91189 6.15497 9.99363 6.1652 10.0745C6.17717 10.7521 6.20559 11.3505 6.27589 11.8711C6.40155 12.8105 6.67978 13.6586 7.3619 14.3393C8.04253 15.0214 8.89069 15.2996 9.83011 15.4253C10.3507 15.4956 10.9505 15.524 11.6267 15.536C11.708 15.5465 11.7903 15.548 11.872 15.5405C12.2819 15.545 12.7201 15.545 13.1839 15.545H19.323C19.7867 15.545 20.225 15.545 20.6364 15.5405C20.7175 15.5479 20.7993 15.5464 20.8802 15.536C21.5578 15.524 22.1577 15.4956 22.6767 15.4253C23.6161 15.2996 24.4643 15.0214 25.1449 14.3393C25.8271 13.6586 26.1053 12.8105 26.2309 11.8711C26.3018 11.2748 26.3388 10.675 26.3416 10.0745C26.3518 9.99363 26.3533 9.91189 26.3461 9.83068C26.3506 9.41932 26.3506 8.98102 26.3506 8.5173V8.36173C26.3506 7.89801 26.3506 7.45971 26.3461 7.04835C26.3535 6.96715 26.352 6.88539 26.3416 6.80452C26.3385 6.20406 26.3016 5.60426 26.2309 5.00796C26.1053 4.06855 25.8271 3.22039 25.1464 2.53976C24.4643 1.85764 23.6161 1.57941 22.6782 1.45375C22.0814 1.38303 21.4811 1.34608 20.8802 1.34306C20.7993 1.33278 20.7176 1.33127 20.6364 1.33857ZM22.0784 3.64372C22.2478 4.09125 22.5103 4.49767 22.8487 4.83602C23.187 5.17438 23.5934 5.43694 24.041 5.60632C24.0316 5.50637 24.0201 5.40662 24.0066 5.30714C23.9153 4.61604 23.7538 4.31986 23.5578 4.12539C23.3633 3.93093 23.0687 3.77087 22.3791 3.67663C22.2796 3.66364 22.1798 3.65267 22.0799 3.64372H22.0784ZM24.041 11.2727C23.5934 11.4421 23.187 11.7047 22.8487 12.043C22.5103 12.3814 22.2478 12.7878 22.0784 13.2353C22.1831 13.2263 22.2833 13.2144 22.3776 13.2024C23.0687 13.1082 23.3648 12.9481 23.5593 12.7536C23.7538 12.5592 23.9153 12.263 24.0081 11.5719C24.02 11.4776 24.032 11.3774 24.041 11.2727ZM10.4285 13.2353C10.2591 12.7878 9.99652 12.3814 9.65816 12.043C9.31981 11.7047 8.91339 11.4421 8.46586 11.2727C8.47634 11.3774 8.48681 11.4776 8.50027 11.5719C8.59301 12.263 8.75307 12.5592 8.94903 12.7536C9.1435 12.9481 9.43819 13.1082 10.1278 13.2024C10.2235 13.2144 10.3237 13.2263 10.4285 13.2353ZM8.46586 5.60632C8.91339 5.43694 9.31981 5.17438 9.65816 4.83602C9.99652 4.49767 10.2591 4.09125 10.4285 3.64372C10.3237 3.6527 10.2235 3.66466 10.1293 3.67813C9.43819 3.77087 9.142 3.93093 8.94754 4.12689C8.75307 4.32136 8.59301 4.61604 8.49877 5.30564L8.46586 5.60632ZM16.2534 8.06554C16.1542 8.06554 16.0591 8.10495 15.989 8.17508C15.9189 8.24521 15.8795 8.34033 15.8795 8.43952C15.8795 8.5387 15.9189 8.63382 15.989 8.70395C16.0591 8.77409 16.1542 8.81349 16.2534 8.81349C16.3526 8.81349 16.4477 8.77409 16.5179 8.70395C16.588 8.63382 16.6274 8.5387 16.6274 8.43952C16.6274 8.34033 16.588 8.24521 16.5179 8.17508C16.4477 8.10495 16.3526 8.06554 16.2534 8.06554ZM13.6356 8.43952C13.6356 7.74523 13.9114 7.07939 14.4024 6.58846C14.8933 6.09753 15.5591 5.82172 16.2534 5.82172C16.9477 5.82172 17.6135 6.09753 18.1045 6.58846C18.5954 7.07939 18.8712 7.74523 18.8712 8.43952C18.8712 9.1338 18.5954 9.79964 18.1045 10.2906C17.6135 10.7815 16.9477 11.0573 16.2534 11.0573C15.5591 11.0573 14.8933 10.7815 14.4024 10.2906C13.9114 9.79964 13.6356 9.1338 13.6356 8.43952ZM11.2931 19.5808C14.0844 19.0408 17.0717 19.162 19.4905 20.604C19.8286 20.806 20.1487 21.0588 20.4254 21.3699C20.9879 22.0027 21.2781 22.7865 21.2915 23.5733C21.5773 23.3894 21.8645 23.1844 22.1547 22.9645L24.8592 20.9226C25.5364 20.4251 26.3547 20.1567 27.195 20.1567C28.0354 20.1567 28.8537 20.4251 29.5309 20.9226C30.7814 21.865 31.281 23.5599 30.385 24.9959C29.7493 26.0146 28.7904 27.4252 27.8166 28.3287C26.8293 29.2412 25.4277 30.0101 24.3671 30.5217C23.0776 31.144 21.6865 31.4881 20.3327 31.7064C17.5653 32.1552 14.6872 32.0864 11.9528 31.5225C10.5426 31.2323 9.10675 31.0854 7.66706 31.0842H4.28637C3.98882 31.0842 3.70346 30.966 3.49306 30.7556C3.28266 30.5452 3.16446 30.2598 3.16446 29.9623C3.16446 29.6647 3.28266 29.3793 3.49306 29.1689C3.70346 28.9585 3.98882 28.8403 4.28637 28.8403H7.66706C9.25569 28.8403 10.8608 29.0064 12.406 29.325C14.8984 29.8364 17.4628 29.8927 19.9752 29.491C21.2138 29.2906 22.3716 28.9929 23.3918 28.5008C24.4135 28.0071 25.5623 27.3579 26.2908 26.6833C27.0283 25.9997 27.8525 24.8164 28.4822 23.8082C28.6722 23.503 28.6453 23.0647 28.1801 22.7132C27.6266 22.2944 26.7635 22.2944 26.2115 22.7132L23.5084 24.7551C22.4284 25.5703 21.1001 26.4424 19.4531 26.7057C19.2806 26.7331 19.1075 26.757 18.934 26.7775C17.8859 26.8984 16.828 26.9085 15.7777 26.8074C15.6284 26.7971 15.4827 26.757 15.3492 26.6896C15.2156 26.6221 15.0969 26.5286 15 26.4145C14.9031 26.3005 14.83 26.1682 14.785 26.0254C14.7401 25.8827 14.7241 25.7324 14.7381 25.5835C14.752 25.4345 14.7957 25.2898 14.8664 25.1579C14.9371 25.026 15.0335 24.9096 15.1499 24.8156C15.2663 24.7215 15.4004 24.6517 15.5441 24.6102C15.6879 24.5688 15.8385 24.5565 15.9872 24.5741C16.817 24.6547 17.6527 24.6532 18.4823 24.5696L18.5272 24.5651C18.6667 24.4785 18.7853 24.362 18.8744 24.224C18.9635 24.086 19.0208 23.9299 19.0423 23.7671C19.0638 23.6042 19.0488 23.4386 18.9985 23.2823C18.9483 23.1259 18.8639 22.9826 18.7515 22.8628C18.6324 22.7316 18.4936 22.6196 18.3402 22.5307C16.5735 21.4761 14.213 21.3011 11.7194 21.7828C9.28374 22.2728 6.97473 23.258 4.93558 24.6773C4.81536 24.7626 4.67952 24.8233 4.53583 24.8561C4.39213 24.8888 4.24339 24.893 4.09809 24.8682C3.9528 24.8435 3.8138 24.7904 3.68902 24.712C3.56425 24.6335 3.45615 24.5313 3.37089 24.411C3.28564 24.2908 3.2249 24.155 3.19214 24.0113C3.15938 23.8676 3.15524 23.7188 3.17997 23.5735C3.20469 23.4282 3.25779 23.2892 3.33624 23.1645C3.41468 23.0397 3.51694 22.9316 3.63716 22.8463C5.9373 21.2427 8.54362 20.131 11.2931 19.5808Z" fill="#181B1F" stroke="#FFC2C2" stroke-width="0.4" mask="url(#path-1-inside-1_256_17199)"/>
</svg>
